<?xml version="1.0" encoding="UTF-8" standalone="no"?><!DOCTYPE svg PUBLIC "-//W3C//DTD SVG 1.1//EN" "http://www.w3.org/Graphics/SVG/1.1/DTD/svg11.dtd"><svg width="100%" height="100%" viewBox="0 0 1866 462" version="1.1" xmlns="http://www.w3.org/2000/svg" xmlns:xlink="http://www.w3.org/1999/xlink" xml:space="preserve" xmlns:serif="http://www.serif.com/" style="fill-rule:evenodd;clip-rule:evenodd;stroke-linejoin:round;stroke-miterlimit:7;"><g><rect x="402.152" y="221.536" width="20.942" height="31.857"/><rect x="461.568" y="221.536" width="20.942" height="31.857"/><rect x="431.852" y="207.321" width="20.942" height="60.287"/><path d="M200.569,58.774c-19.775,0 -38.259,3.124 -55.452,9.371c-17.193,6.247 -32.115,15.574 -44.766,27.98c-12.651,12.406 -22.629,27.804 -29.934,46.193c-7.303,18.389 -10.954,39.814 -10.954,64.274c0,24.284 3.385,45.357 10.154,63.218c6.769,17.861 16.389,32.643 28.858,44.345c12.469,11.702 27.476,20.369 45.021,26c17.545,5.631 37.094,8.447 58.648,8.447c5.879,0 12.113,-0.308 18.704,-0.924c6.591,-0.616 13.225,-1.496 19.904,-2.64c6.681,-1.144 13.184,-2.464 19.508,-3.959c6.324,-1.496 11.98,-3.124 16.968,-4.883l0,38.01c-10.382,4.047 -22.436,7.171 -36.162,9.371c-13.726,2.2 -27.804,3.299 -42.233,3.299c-29.387,0 -55.431,-4.091 -78.132,-12.274c-22.7,-8.183 -41.749,-19.929 -57.147,-35.238c-15.398,-15.31 -27.056,-34.007 -34.974,-56.091c-7.919,-22.084 -11.878,-47.116 -11.878,-75.096c0,-27.452 4.179,-52.704 12.538,-75.756c8.359,-23.052 20.413,-42.849 36.162,-59.391c15.749,-16.541 34.842,-29.431 57.279,-38.67c22.436,-9.239 47.644,-13.858 75.624,-13.858c7.391,0 14.694,0.308 21.909,0.924c7.215,0.616 14.122,1.496 20.721,2.64c6.599,1.144 12.714,2.508 18.345,4.091c5.631,1.584 10.47,3.255 14.518,5.015l0,38.01c-10.69,-3.519 -22.361,-6.467 -35.012,-8.843c-12.648,-2.376 -25.387,-3.563 -38.216,-3.563Z" style="fill-rule:nonzero;"/><path d="M121.295,61.125c33.058,-40.422 75.117,-33.297 75.888,-31.985c0.901,1.534 0.364,1.76 0.351,8.135c-0.008,4.232 0.024,28.826 -0.025,29.2c-0.531,4.079 -10.915,-2.34 -28.521,3.069c-70.99,21.809 -63.374,185.239 -39.721,236.167c24.027,51.734 67.825,39.669 67.938,39.833c0.668,0.966 0.3,38.088 0.181,38.573c-0.647,2.635 -19.888,2.877 -35.782,-1.235c-75.931,-19.641 -88.435,-164.083 -73.394,-243.246c10.173,-53.542 31.688,-76.71 33.085,-78.513Z" style="fill-opacity:1;"/><path d="M179.805,362.507c-2.555,-2.864 -18.517,-20.757 -20.179,-43.521c-0.468,-6.405 -0.919,-8.082 1.76,-7.99c6.752,0.232 147.177,-0.237 148.172,0.25c0.954,0.467 1.115,23.37 -13.691,43.456c-2.676,3.63 -18.826,25.54 -47.608,30.175c-5.688,0.916 -41.751,6.723 -68.454,-22.37Z" style="fill-opacity:1;"/><path d="M310.516,288.107l0,13.58c0,3.748 -3.043,6.79 -6.79,6.79l-137.985,0c-3.748,0 -6.79,-3.043 -6.79,-6.79l0,-13.58c0,-3.748 3.043,-6.79 6.79,-6.79l137.985,0c3.748,0 6.79,3.043 6.79,6.79Z"/><path d="M310.516,105.565l0,13.58c0,3.748 -3.043,6.79 -6.79,6.79l-137.985,0c-3.748,0 -6.79,-3.043 -6.79,-6.79l0,-13.58c0,-3.748 3.043,-6.79 6.79,-6.79l137.985,0c3.748,0 6.79,3.043 6.79,6.79Z"/><path d="M179.805,44.796c-2.555,2.864 -18.517,20.757 -20.179,43.521c-0.468,6.405 -0.919,8.082 1.76,7.99c6.752,-0.232 147.177,0.237 148.172,-0.25c0.954,-0.467 1.115,-23.37 -13.691,-43.456c-2.676,-3.63 -18.826,-25.54 -47.608,-30.175c-5.688,-0.916 -41.751,-6.723 -68.454,22.37Z" style="fill-opacity:1;"/><path d="M1140.993,359.298l423.033,0l37.454,-320.649l131.984,320.649l38.076,-320.155l71.461,0m-1602.776,320.109l80.143,0.076l122.274,-319.951l119.269,319.921l386.434,0" style="fill:none;stroke:#000;stroke-width:37.5px;"/><g><path d="M1308.01,51.496c55.959,56.845 41.005,135.467 3.512,174.525c-18.752,19.535 -26.43,17.336 -22.649,22.708c23.245,33.031 51.441,70.898 55.99,77.007c4.193,5.632 -1.493,3.731 -3.363,3.729c-44.311,-0.041 -44.947,0.502 -46.638,-1.74c-12.987,-17.217 -47.898,-66.555 -50.286,-67.07c-0.571,-0.123 -39.609,-0.181 -40.191,-0.005c-1.608,0.488 -0.876,1.306 -1.259,66.343c-0.013,2.263 -0.391,2.46 -2.615,2.47c-2.878,0.014 -35.402,0.173 -35.971,0.059c-2.046,-0.412 -1.738,-1.424 -1.738,-46.524c0,-261.288 -0.074,-261.473 0.611,-262.114c0.127,-0.119 69.983,-1.518 86.134,0.831c29.626,4.309 47.385,19.198 58.464,29.78l-32.911,26.993c-2.832,-2.171 -12.879,-10.216 -27.671,-13.132c-10.842,-2.137 -43.469,-2.054 -44.103,-0.442c-0.022,0.055 -0.969,150.666 0.501,151.642c0.904,0.6 28.388,0.457 35.648,0.052c32.364,-1.805 59.645,-32.38 63.705,-61.661c6.434,-46.412 -17.237,-66.453 -28.08,-76.459l32.911,-26.993Z" style="fill-opacity:1;"/><path d="M733.988,63.592c40.492,50.604 35.135,136.57 -26.72,179.059c-3.499,2.403 -5.772,2.477 -3.28,5.996c19.693,27.805 51.467,70.877 55.988,77.006c0.185,0.251 2.869,3.89 0.678,3.835c-15.102,-0.375 -48.131,0.847 -49.824,-0.824c-1.256,-1.24 -48.93,-67.152 -50.284,-67.752c-0.872,-0.387 -40.854,-0.934 -41.821,0.275c-1.33,1.663 0.688,67.103 -1.112,67.982c-1.37,0.669 -25.935,0.062 -37.11,0.365c-3.064,0.083 -2.495,-1.682 -2.495,-32.534c0,-271.01 0.008,-271.004 -0.068,-273.995c-0.077,-3.035 1.671,-2.471 32.558,-2.471c55.702,-0 83.906,-3.8 123.488,43.057l-30.974,126.002c35.354,-47.768 10.6,-106.637 -32.66,-122.178c-16.333,-5.867 -51.418,-3.03 -51.457,-2.994c-0.639,0.584 -0.586,0.767 -0.583,143.578c0,6.087 -1.913,8.895 4.187,8.901c39.741,0.043 54.558,2.064 80.514,-27.307l30.974,-126.002Z" style="fill-opacity:1;"/><path d="M1405.992,127c0,77.889 -0.209,78.764 1.475,79.148c1.788,0.409 94.136,-0.546 95.316,0.516c0.803,0.723 0.692,0.948 0.688,38.336c-0,2.807 -0.128,3.448 -2.964,3.454c-92.345,0.201 -93.83,-1.141 -94.401,1.453c-0.003,0.013 -0.212,35.375 0.094,36.221c0.461,1.276 1.078,1.108 122.3,1.112c5.342,0 3.782,2.409 3.791,7.76c0.052,33.313 0.098,34.178 -1.715,34.443c-0.667,0.097 -154.877,-0.083 -161.071,0.092c-3.208,0.091 -2.612,-1.753 -2.612,-32.535c-0,-275.288 -0.066,-275.446 0.554,-276.061c0.728,-0.723 163.271,-0.557 164.164,-0.097c1.137,0.585 1.068,40.806 0.037,41.346c-2.325,1.219 -123.738,-0.42 -125.086,0.877c-1.125,1.081 -0.157,51.892 -0.569,63.936Z" style="fill-opacity:1;"/><path d="M784.567,20.493c36.323,0.126 36.456,-0.079 36.986,0.447c1.621,1.612 -0.543,264.373 1.143,265.84c1.204,1.048 121.784,0.163 124.776,0.478c2.148,0.226 1.766,1.374 1.765,33.742c-0,5.748 2.044,8.523 -3.736,8.466c-25.566,-0.253 -160.935,0.591 -161.962,-0.502c-0.492,-0.523 -0.439,-0.658 -0.439,-275.964c0,-30.357 -0.332,-30.701 1.468,-32.507Z"/></g><path d="M1133.863,87.371l0,175.258c0,36.907 -29.964,66.871 -66.871,66.871l-42.879,0c-36.907,0 -66.871,-29.964 -66.871,-66.871l0,-175.258c0,-36.907 29.964,-66.871 66.871,-66.871l42.879,0c36.907,0 66.871,29.964 66.871,66.871Zm-37.5,-0c0,-16.21 -13.161,-29.371 -29.371,-29.371l-42.879,0c-16.21,0 -29.371,13.161 -29.371,29.371l0,175.258c0,16.21 13.161,29.371 29.371,29.371l42.879,0c16.21,0 29.371,-13.161 29.371,-29.371l0,-175.258Z"/><path d="M1045.552,314.631l0,44.667l-73.435,0l145.662,0l-72.227,0" style="fill:none;stroke:#000;stroke-width:37.5px;stroke-linejoin:miter;"/><path d="M978.927,234.979l33.316,0" style="fill:none;stroke:#000;stroke-width:33.33px;stroke-linejoin:miter;"/><path d="M978.927,175l33.316,0" style="fill:none;stroke:#000;stroke-width:33.33px;stroke-linejoin:miter;"/><path d="M978.927,114.982l33.316,0" style="fill:none;stroke:#000;stroke-width:33.33px;stroke-linejoin:miter;"/><path d="M1080.29,114.982l33.316,0" style="fill:none;stroke:#000;stroke-width:33.33px;stroke-linejoin:miter;"/><path d="M1080.29,175l33.316,0" style="fill:none;stroke:#000;stroke-width:33.33px;stroke-linejoin:miter;"/><path d="M1080.29,234.951l33.316,0" style="fill:none;stroke:#000;stroke-width:33.33px;stroke-linejoin:miter;"/></g><path d="M577.218,388.712c0.333,0 0.681,0.083 1.042,0.25c0.361,0.167 0.625,0.444 0.792,0.833l19.25,49.25c0.167,0.444 0.153,0.875 -0.042,1.292c-0.194,0.417 -0.514,0.708 -0.958,0.875c-0.444,0.167 -0.875,0.153 -1.292,-0.042c-0.417,-0.194 -0.708,-0.514 -0.875,-0.958l-5.167,-13.083l-25,0l-5.083,13.083c-0.167,0.444 -0.458,0.764 -0.875,0.958c-0.417,0.194 -0.847,0.208 -1.292,0.042c-0.444,-0.167 -0.764,-0.458 -0.958,-0.875c-0.194,-0.417 -0.208,-0.847 -0.042,-1.292l19,-48.667c0.056,-0.222 0.056,-0.431 0,-0.625c-0.056,-0.194 -0.056,-0.375 0,-0.542c0.056,-0.167 0.181,-0.292 0.375,-0.375c0.194,-0.083 0.569,-0.125 1.125,-0.125Zm-10.917,35.083l22.417,0l-11.25,-28.583l-11.167,28.583Z" style="fill-rule:nonzero;"/><path d="M639.052,400.212c-2.5,-2.722 -5.139,-4.736 -7.917,-6.042c-2.778,-1.306 -5.917,-1.958 -9.417,-1.958c-3.167,0 -6.139,0.597 -8.917,1.792c-2.778,1.194 -5.208,2.833 -7.292,4.917c-2.083,2.083 -3.722,4.514 -4.917,7.292c-1.194,2.778 -1.792,5.75 -1.792,8.917c0,3.167 0.597,6.139 1.792,8.917c1.194,2.778 2.833,5.208 4.917,7.292c2.083,2.083 4.514,3.722 7.292,4.917c2.778,1.194 5.75,1.792 8.917,1.792c3.5,0 6.736,-0.708 9.708,-2.125c2.972,-1.417 5.514,-3.375 7.625,-5.875c0.278,-0.333 0.528,-0.542 0.75,-0.625c0.222,-0.083 0.444,-0.125 0.667,-0.125c0.444,0 0.833,0.167 1.167,0.5c0.333,0.333 0.5,0.694 0.5,1.083c0,0.5 -0.222,0.972 -0.667,1.417c-1.444,1.556 -2.875,2.903 -4.292,4.042c-1.417,1.139 -2.889,2.083 -4.417,2.833c-1.528,0.75 -3.194,1.306 -5,1.667c-1.806,0.361 -3.819,0.542 -6.042,0.542c-3.611,0 -7.014,-0.681 -10.208,-2.042c-3.194,-1.361 -5.986,-3.236 -8.375,-5.625c-2.389,-2.389 -4.264,-5.181 -5.625,-8.375c-1.361,-3.194 -2.042,-6.597 -2.042,-10.208c0,-3.611 0.681,-7.014 2.042,-10.208c1.361,-3.194 3.236,-5.972 5.625,-8.333c2.389,-2.361 5.181,-4.236 8.375,-5.625c3.194,-1.389 6.597,-2.083 10.208,-2.083c2.222,0 4.236,0.194 6.042,0.583c1.806,0.389 3.486,0.972 5.042,1.75c1.556,0.778 3.042,1.736 4.458,2.875c1.417,1.139 2.875,2.486 4.375,4.042c0.333,0.333 0.5,0.722 0.5,1.167c0,0.444 -0.167,0.833 -0.5,1.167c-0.333,0.333 -0.722,0.5 -1.167,0.5c-0.5,0 -0.972,-0.25 -1.417,-0.75Z" style="fill-rule:nonzero;"/><path d="M683.218,390.379c0,0.444 -0.167,0.833 -0.5,1.167c-0.333,0.333 -0.722,0.5 -1.167,0.5l-17.25,0l0,47.583c0,0.444 -0.167,0.833 -0.5,1.167c-0.333,0.333 -0.722,0.5 -1.167,0.5c-0.444,0 -0.833,-0.167 -1.167,-0.5c-0.333,-0.333 -0.5,-0.722 -0.5,-1.167l0,-47.583l-17.25,0c-0.444,0 -0.833,-0.167 -1.167,-0.5c-0.333,-0.333 -0.5,-0.722 -0.5,-1.167c0,-0.444 0.167,-0.833 0.5,-1.167c0.333,-0.333 0.722,-0.5 1.167,-0.5l37.833,0c0.444,0 0.833,0.167 1.167,0.5c0.333,0.333 0.5,0.722 0.5,1.167Z" style="fill-rule:nonzero;"/><path d="M676.635,415.045c0,-3.611 0.681,-7.014 2.042,-10.208c1.361,-3.194 3.236,-5.972 5.625,-8.333c2.389,-2.361 5.181,-4.236 8.375,-5.625c3.194,-1.389 6.597,-2.083 10.208,-2.083c3.611,0 7.014,0.694 10.208,2.083c3.194,1.389 5.972,3.264 8.333,5.625c2.361,2.361 4.236,5.139 5.625,8.333c1.389,3.194 2.083,6.597 2.083,10.208c0,3.611 -0.694,7.014 -2.083,10.208c-1.389,3.194 -3.264,5.986 -5.625,8.375c-2.361,2.389 -5.139,4.264 -8.333,5.625c-3.194,1.361 -6.597,2.042 -10.208,2.042c-3.611,0 -7.014,-0.681 -10.208,-2.042c-3.194,-1.361 -5.986,-3.236 -8.375,-5.625c-2.389,-2.389 -4.264,-5.181 -5.625,-8.375c-1.361,-3.194 -2.042,-6.597 -2.042,-10.208Zm3.333,0c0,3.167 0.597,6.139 1.792,8.917c1.194,2.778 2.833,5.208 4.917,7.292c2.083,2.083 4.514,3.722 7.292,4.917c2.778,1.194 5.75,1.792 8.917,1.792c3.167,0 6.139,-0.597 8.917,-1.792c2.778,-1.194 5.208,-2.833 7.292,-4.917c2.083,-2.083 3.722,-4.514 4.917,-7.292c1.194,-2.778 1.792,-5.75 1.792,-8.917c0,-3.167 -0.597,-6.139 -1.792,-8.917c-1.194,-2.778 -2.833,-5.208 -4.917,-7.292c-2.083,-2.083 -4.514,-3.722 -7.292,-4.917c-2.778,-1.194 -5.75,-1.792 -8.917,-1.792c-3.167,0 -6.139,0.597 -8.917,1.792c-2.778,1.194 -5.208,2.833 -7.292,4.917c-2.083,2.083 -3.722,4.514 -4.917,7.292c-1.194,2.778 -1.792,5.75 -1.792,8.917Z" style="fill-rule:nonzero;"/><path d="M766.718,409.045c0,4.278 -1.125,7.944 -3.375,11c-2.25,3.056 -5.208,5.306 -8.875,6.75l11.917,11.583c0.278,0.278 0.444,0.667 0.5,1.167c0.056,0.5 -0.083,0.889 -0.417,1.167c-0.333,0.278 -0.722,0.431 -1.167,0.458c-0.444,0.028 -0.861,-0.125 -1.25,-0.458l-13.333,-12.75c-1.667,0.333 -3.389,0.5 -5.167,0.5l-9.167,0l0,11.167c0,0.444 -0.167,0.833 -0.5,1.167c-0.333,0.333 -0.722,0.5 -1.167,0.5c-0.444,0 -0.833,-0.167 -1.167,-0.5c-0.333,-0.333 -0.5,-0.722 -0.5,-1.167l0,-49.25c0,-0.222 -0.028,-0.431 -0.083,-0.625c-0.056,-0.194 -0.056,-0.375 0,-0.542c0.056,-0.167 0.194,-0.292 0.417,-0.375c0.222,-0.083 0.611,-0.125 1.167,-0.125l11,0c2.889,0 5.625,0.514 8.208,1.542c2.583,1.028 4.833,2.444 6.75,4.25c1.917,1.806 3.431,3.958 4.542,6.458c1.111,2.5 1.667,5.194 1.667,8.083Zm-3.333,0c0,-2.444 -0.472,-4.708 -1.417,-6.792c-0.944,-2.083 -2.222,-3.875 -3.833,-5.375c-1.611,-1.5 -3.5,-2.681 -5.667,-3.542c-2.167,-0.861 -4.472,-1.292 -6.917,-1.292l-9.167,0l0,33.083l9.167,0c2.444,0 4.75,-0.375 6.917,-1.125c2.167,-0.75 4.056,-1.819 5.667,-3.208c1.611,-1.389 2.889,-3.083 3.833,-5.083c0.944,-2 1.417,-4.222 1.417,-6.667Z" style="fill-rule:nonzero;"/><path d="M792.635,441.295c-0.444,0 -0.833,-0.167 -1.167,-0.5c-0.333,-0.333 -0.5,-0.722 -0.5,-1.167l0,-49.25c0,-0.222 -0.028,-0.431 -0.083,-0.625c-0.056,-0.194 -0.056,-0.375 0,-0.542c0.056,-0.167 0.194,-0.292 0.417,-0.375c0.222,-0.083 0.611,-0.125 1.167,-0.125l13.417,0c3.611,0 7.014,0.694 10.208,2.083c3.194,1.389 5.986,3.278 8.375,5.667c2.389,2.389 4.278,5.181 5.667,8.375c1.389,3.194 2.083,6.597 2.083,10.208c0,3.611 -0.694,7.014 -2.083,10.208c-1.389,3.194 -3.278,5.986 -5.667,8.375c-2.389,2.389 -5.181,4.264 -8.375,5.625c-3.194,1.361 -6.597,2.042 -10.208,2.042l-13.25,0Zm36.25,-26.25c0,-3.167 -0.611,-6.139 -1.833,-8.917c-1.222,-2.778 -2.875,-5.208 -4.958,-7.292c-2.083,-2.083 -4.514,-3.736 -7.292,-4.958c-2.778,-1.222 -5.75,-1.833 -8.917,-1.833l-11.583,0l0,45.917l11.583,0c3.167,0 6.139,-0.597 8.917,-1.792c2.778,-1.194 5.208,-2.833 7.292,-4.917c2.083,-2.083 3.736,-4.514 4.958,-7.292c1.222,-2.778 1.833,-5.75 1.833,-8.917Z" style="fill-rule:nonzero;"/><path d="M875.802,439.629c0,0.444 -0.167,0.833 -0.5,1.167c-0.333,0.333 -0.722,0.5 -1.167,0.5l-32.917,0c-0.444,0 -0.806,-0.167 -1.083,-0.5c-0.278,-0.333 -0.417,-0.722 -0.417,-1.167l0,-48.667c0,-0.222 -0.042,-0.458 -0.125,-0.708c-0.083,-0.25 -0.125,-0.486 -0.125,-0.708c0,-0.222 0.069,-0.417 0.208,-0.583c0.139,-0.167 0.431,-0.25 0.875,-0.25l33.583,0c0.444,0 0.833,0.167 1.167,0.5c0.333,0.333 0.5,0.722 0.5,1.167c0,0.444 -0.167,0.833 -0.5,1.167c-0.333,0.333 -0.722,0.5 -1.167,0.5l-31.083,0l0,23.75l25.667,0c0.444,0 0.833,0.167 1.167,0.5c0.333,0.333 0.5,0.722 0.5,1.167c0,0.444 -0.167,0.833 -0.5,1.167c-0.333,0.333 -0.722,0.5 -1.167,0.5l-25.667,0l0,18.833l31.083,0c0.444,0 0.833,0.167 1.167,0.5c0.333,0.333 0.5,0.722 0.5,1.167Z" style="fill-rule:nonzero;"/><path d="M899.718,441.295c-0.444,0 -0.833,-0.167 -1.167,-0.5c-0.333,-0.333 -0.5,-0.722 -0.5,-1.167l0,-49.25c0,-0.222 -0.028,-0.431 -0.083,-0.625c-0.056,-0.194 -0.056,-0.375 0,-0.542c0.056,-0.167 0.194,-0.292 0.417,-0.375c0.222,-0.083 0.611,-0.125 1.167,-0.125l13.417,0c3.611,0 7.014,0.694 10.208,2.083c3.194,1.389 5.986,3.278 8.375,5.667c2.389,2.389 4.278,5.181 5.667,8.375c1.389,3.194 2.083,6.597 2.083,10.208c0,3.611 -0.694,7.014 -2.083,10.208c-1.389,3.194 -3.278,5.986 -5.667,8.375c-2.389,2.389 -5.181,4.264 -8.375,5.625c-3.194,1.361 -6.597,2.042 -10.208,2.042l-13.25,0Zm36.25,-26.25c0,-3.167 -0.611,-6.139 -1.833,-8.917c-1.222,-2.778 -2.875,-5.208 -4.958,-7.292c-2.083,-2.083 -4.514,-3.736 -7.292,-4.958c-2.778,-1.222 -5.75,-1.833 -8.917,-1.833l-11.583,0l0,45.917l11.583,0c3.167,0 6.139,-0.597 8.917,-1.792c2.778,-1.194 5.208,-2.833 7.292,-4.917c2.083,-2.083 3.736,-4.514 4.958,-7.292c1.222,-2.778 1.833,-5.75 1.833,-8.917Z" style="fill-rule:nonzero;"/><path d="M945.968,415.045c0,-3.611 0.681,-7.014 2.042,-10.208c1.361,-3.194 3.236,-5.972 5.625,-8.333c2.389,-2.361 5.181,-4.236 8.375,-5.625c3.194,-1.389 6.597,-2.083 10.208,-2.083c3.611,0 7.014,0.694 10.208,2.083c3.194,1.389 5.972,3.264 8.333,5.625c2.361,2.361 4.236,5.139 5.625,8.333c1.389,3.194 2.083,6.597 2.083,10.208c0,3.611 -0.694,7.014 -2.083,10.208c-1.389,3.194 -3.264,5.986 -5.625,8.375c-2.361,2.389 -5.139,4.264 -8.333,5.625c-3.194,1.361 -6.597,2.042 -10.208,2.042c-3.611,0 -7.014,-0.681 -10.208,-2.042c-3.194,-1.361 -5.986,-3.236 -8.375,-5.625c-2.389,-2.389 -4.264,-5.181 -5.625,-8.375c-1.361,-3.194 -2.042,-6.597 -2.042,-10.208Zm3.333,0c0,3.167 0.597,6.139 1.792,8.917c1.194,2.778 2.833,5.208 4.917,7.292c2.083,2.083 4.514,3.722 7.292,4.917c2.778,1.194 5.75,1.792 8.917,1.792c3.167,0 6.139,-0.597 8.917,-1.792c2.778,-1.194 5.208,-2.833 7.292,-4.917c2.083,-2.083 3.722,-4.514 4.917,-7.292c1.194,-2.778 1.792,-5.75 1.792,-8.917c0,-3.167 -0.597,-6.139 -1.792,-8.917c-1.194,-2.778 -2.833,-5.208 -4.917,-7.292c-2.083,-2.083 -4.514,-3.722 -7.292,-4.917c-2.778,-1.194 -5.75,-1.792 -8.917,-1.792c-3.167,0 -6.139,0.597 -8.917,1.792c-2.778,1.194 -5.208,2.833 -7.292,4.917c-2.083,2.083 -3.722,4.514 -4.917,7.292c-1.194,2.778 -1.792,5.75 -1.792,8.917Z" style="fill-rule:nonzero;"/><path d="M1004.718,441.295c-0.444,0 -0.833,-0.167 -1.167,-0.5c-0.333,-0.333 -0.5,-0.722 -0.5,-1.167l0,-49.25c0,-0.222 -0.028,-0.431 -0.083,-0.625c-0.056,-0.194 -0.056,-0.375 0,-0.542c0.056,-0.167 0.194,-0.292 0.417,-0.375c0.222,-0.083 0.611,-0.125 1.167,-0.125l20.333,0c1.722,0 3.347,0.334 4.875,1.003c1.528,0.668 2.847,1.558 3.958,2.672c1.111,1.113 2,2.435 2.667,3.966c0.667,1.53 1,3.158 1,4.884c0,2.283 -0.542,4.357 -1.625,6.221c-1.083,1.865 -2.514,3.354 -4.292,4.467c2.667,1.22 4.819,3.079 6.458,5.576c1.639,2.496 2.458,5.296 2.458,8.402c0,2.163 -0.403,4.174 -1.208,6.033c-0.806,1.858 -1.917,3.48 -3.333,4.867c-1.417,1.386 -3.056,2.482 -4.917,3.286c-1.861,0.804 -3.875,1.206 -6.042,1.206l-20.167,0Zm1.667,-27.5l0,24.167l18.5,0c1.667,0 3.25,-0.318 4.75,-0.954c1.5,-0.637 2.792,-1.509 3.875,-2.616c1.083,-1.108 1.944,-2.395 2.583,-3.862c0.639,-1.467 0.958,-3.031 0.958,-4.693c0,-1.661 -0.319,-3.224 -0.958,-4.691c-0.639,-1.468 -1.5,-2.741 -2.583,-3.82c-1.083,-1.08 -2.375,-1.938 -3.875,-2.574c-1.5,-0.637 -3.083,-0.956 -4.75,-0.956l-18.5,0Zm0,-21.75l0,18.417l18.5,0c1.278,0 2.472,-0.237 3.583,-0.711c1.111,-0.475 2.083,-1.131 2.917,-1.967c0.833,-0.838 1.486,-1.814 1.958,-2.93c0.472,-1.116 0.708,-2.316 0.708,-3.6c0,-1.284 -0.236,-2.484 -0.708,-3.599c-0.472,-1.116 -1.125,-2.093 -1.958,-2.93c-0.833,-0.838 -1.806,-1.493 -2.917,-1.967c-1.111,-0.475 -2.306,-0.712 -3.583,-0.712l-18.5,0Z" style="fill-rule:nonzero;"/><path d="M1081.968,439.629c0,0.444 -0.167,0.833 -0.5,1.167c-0.333,0.333 -0.722,0.5 -1.167,0.5l-33.75,0c-0.444,0 -0.806,-0.167 -1.083,-0.5c-0.278,-0.333 -0.417,-0.722 -0.417,-1.167l0,-49.167c0,-0.222 -0.028,-0.431 -0.083,-0.625c-0.056,-0.194 -0.056,-0.375 0,-0.542c0.056,-0.167 0.194,-0.292 0.417,-0.375c0.222,-0.083 0.611,-0.125 1.167,-0.125c0.611,0 1.069,0.167 1.375,0.5c0.306,0.333 0.458,0.722 0.458,1.167l0,47.5l31.917,0c0.444,0 0.833,0.167 1.167,0.5c0.333,0.333 0.5,0.722 0.5,1.167Z" style="fill-rule:nonzero;"/><path d="M1106.635,388.712c0.333,0 0.681,0.083 1.042,0.25c0.361,0.167 0.625,0.444 0.792,0.833l19.25,49.25c0.167,0.444 0.153,0.875 -0.042,1.292c-0.194,0.417 -0.514,0.708 -0.958,0.875c-0.444,0.167 -0.875,0.153 -1.292,-0.042c-0.417,-0.194 -0.708,-0.514 -0.875,-0.958l-5.167,-13.083l-25,0l-5.083,13.083c-0.167,0.444 -0.458,0.764 -0.875,0.958c-0.417,0.194 -0.847,0.208 -1.292,0.042c-0.444,-0.167 -0.764,-0.458 -0.958,-0.875c-0.194,-0.417 -0.208,-0.847 -0.042,-1.292l19,-48.667c0.056,-0.222 0.056,-0.431 0,-0.625c-0.056,-0.194 -0.056,-0.375 0,-0.542c0.056,-0.167 0.181,-0.292 0.375,-0.375c0.194,-0.083 0.569,-0.125 1.125,-0.125Zm-10.917,35.083l22.417,0l-11.25,-28.583l-11.167,28.583Z" style="fill-rule:nonzero;"/><path d="M1122.135,452.462c0,-0.444 0.167,-0.833 0.5,-1.167c0.333,-0.333 0.778,-0.5 1.333,-0.5c2.722,-0.111 4.833,-1.222 6.333,-3.333c1.5,-2.111 2.25,-4.722 2.25,-7.833l0,-49.167l-0.083,-0.917c0,-0.222 0.097,-0.403 0.292,-0.542c0.194,-0.139 0.625,-0.208 1.292,-0.208c0.611,0 1.069,0.167 1.375,0.5c0.306,0.333 0.458,0.722 0.458,1.167l0,49.167c0,2.056 -0.278,3.958 -0.833,5.708c-0.556,1.75 -1.347,3.278 -2.375,4.583c-1.028,1.306 -2.292,2.333 -3.792,3.083c-1.5,0.75 -3.194,1.125 -5.083,1.125c-0.444,0 -0.833,-0.167 -1.167,-0.5c-0.333,-0.333 -0.5,-0.722 -0.5,-1.167Z" style="fill-rule:nonzero;"/><path d="M1177.218,439.629c0,0.444 -0.167,0.833 -0.5,1.167c-0.333,0.333 -0.722,0.5 -1.167,0.5l-32.917,0c-0.444,0 -0.806,-0.167 -1.083,-0.5c-0.278,-0.333 -0.417,-0.722 -0.417,-1.167l0,-48.667c0,-0.222 -0.042,-0.458 -0.125,-0.708c-0.083,-0.25 -0.125,-0.486 -0.125,-0.708c0,-0.222 0.069,-0.417 0.208,-0.583c0.139,-0.167 0.431,-0.25 0.875,-0.25l33.583,0c0.444,0 0.833,0.167 1.167,0.5c0.333,0.333 0.5,0.722 0.5,1.167c0,0.444 -0.167,0.833 -0.5,1.167c-0.333,0.333 -0.722,0.5 -1.167,0.5l-31.083,0l0,23.75l25.667,0c0.444,0 0.833,0.167 1.167,0.5c0.333,0.333 0.5,0.722 0.5,1.167c0,0.444 -0.167,0.833 -0.5,1.167c-0.333,0.333 -0.722,0.5 -1.167,0.5l-25.667,0l0,18.833l31.083,0c0.444,0 0.833,0.167 1.167,0.5c0.333,0.333 0.5,0.722 0.5,1.167Z" style="fill-rule:nonzero;"/><path d="M1243.552,389.212c0.333,0.278 0.5,0.653 0.5,1.125c0,0.472 -0.167,0.875 -0.5,1.208l-21.25,21.25l0,26.833c0,0.444 -0.167,0.833 -0.5,1.167c-0.333,0.333 -0.722,0.5 -1.167,0.5c-0.444,0 -0.833,-0.167 -1.167,-0.5c-0.333,-0.333 -0.5,-0.722 -0.5,-1.167l0,-26.833l-21.25,-21.25c-0.333,-0.333 -0.5,-0.736 -0.5,-1.208c0,-0.472 0.167,-0.847 0.5,-1.125c0.778,-0.778 1.556,-0.778 2.333,0l20.583,20.5l20.583,-20.5c0.778,-0.778 1.556,-0.778 2.333,0Z" style="fill-rule:nonzero;"/><path d="M1304.052,439.629c0,0.444 -0.167,0.833 -0.5,1.167c-0.333,0.333 -0.722,0.5 -1.167,0.5l-33.75,0c-0.444,0 -0.806,-0.167 -1.083,-0.5c-0.278,-0.333 -0.417,-0.722 -0.417,-1.167l0,-49.167c0,-0.222 -0.028,-0.431 -0.083,-0.625c-0.056,-0.194 -0.056,-0.375 0,-0.542c0.056,-0.167 0.194,-0.292 0.417,-0.375c0.222,-0.083 0.611,-0.125 1.167,-0.125c0.611,0 1.069,0.167 1.375,0.5c0.306,0.333 0.458,0.722 0.458,1.167l0,47.5l31.917,0c0.444,0 0.833,0.167 1.167,0.5c0.333,0.333 0.5,0.722 0.5,1.167Z" style="fill-rule:nonzero;"/><path d="M1296.552,415.045c0,-3.611 0.681,-7.014 2.042,-10.208c1.361,-3.194 3.236,-5.972 5.625,-8.333c2.389,-2.361 5.181,-4.236 8.375,-5.625c3.194,-1.389 6.597,-2.083 10.208,-2.083c3.611,0 7.014,0.694 10.208,2.083c3.194,1.389 5.972,3.264 8.333,5.625c2.361,2.361 4.236,5.139 5.625,8.333c1.389,3.194 2.083,6.597 2.083,10.208c0,3.611 -0.694,7.014 -2.083,10.208c-1.389,3.194 -3.264,5.986 -5.625,8.375c-2.361,2.389 -5.139,4.264 -8.333,5.625c-3.194,1.361 -6.597,2.042 -10.208,2.042c-3.611,0 -7.014,-0.681 -10.208,-2.042c-3.194,-1.361 -5.986,-3.236 -8.375,-5.625c-2.389,-2.389 -4.264,-5.181 -5.625,-8.375c-1.361,-3.194 -2.042,-6.597 -2.042,-10.208Zm3.333,0c0,3.167 0.597,6.139 1.792,8.917c1.194,2.778 2.833,5.208 4.917,7.292c2.083,2.083 4.514,3.722 7.292,4.917c2.778,1.194 5.75,1.792 8.917,1.792c3.167,0 6.139,-0.597 8.917,-1.792c2.778,-1.194 5.208,-2.833 7.292,-4.917c2.083,-2.083 3.722,-4.514 4.917,-7.292c1.194,-2.778 1.792,-5.75 1.792,-8.917c0,-3.167 -0.597,-6.139 -1.792,-8.917c-1.194,-2.778 -2.833,-5.208 -4.917,-7.292c-2.083,-2.083 -4.514,-3.722 -7.292,-4.917c-2.778,-1.194 -5.75,-1.792 -8.917,-1.792c-3.167,0 -6.139,0.597 -8.917,1.792c-2.778,1.194 -5.208,2.833 -7.292,4.917c-2.083,2.083 -3.722,4.514 -4.917,7.292c-1.194,2.778 -1.792,5.75 -1.792,8.917Z" style="fill-rule:nonzero;"/><path d="M1396.968,400.212c-2.5,-2.722 -5.139,-4.736 -7.917,-6.042c-2.778,-1.306 -5.917,-1.958 -9.417,-1.958c-3.167,0 -6.139,0.597 -8.917,1.792c-2.778,1.194 -5.208,2.833 -7.292,4.917c-2.083,2.083 -3.722,4.514 -4.917,7.292c-1.194,2.778 -1.792,5.75 -1.792,8.917c0,3.167 0.597,6.139 1.792,8.917c1.194,2.778 2.833,5.208 4.917,7.292c2.083,2.083 4.514,3.722 7.292,4.917c2.778,1.194 5.75,1.792 8.917,1.792c3.5,0 6.736,-0.708 9.708,-2.125c2.972,-1.417 5.514,-3.375 7.625,-5.875c0.278,-0.333 0.528,-0.542 0.75,-0.625c0.222,-0.083 0.444,-0.125 0.667,-0.125c0.444,0 0.833,0.167 1.167,0.5c0.333,0.333 0.5,0.694 0.5,1.083c0,0.5 -0.222,0.972 -0.667,1.417c-1.444,1.556 -2.875,2.903 -4.292,4.042c-1.417,1.139 -2.889,2.083 -4.417,2.833c-1.528,0.75 -3.194,1.306 -5,1.667c-1.806,0.361 -3.819,0.542 -6.042,0.542c-3.611,0 -7.014,-0.681 -10.208,-2.042c-3.194,-1.361 -5.986,-3.236 -8.375,-5.625c-2.389,-2.389 -4.264,-5.181 -5.625,-8.375c-1.361,-3.194 -2.042,-6.597 -2.042,-10.208c0,-3.611 0.681,-7.014 2.042,-10.208c1.361,-3.194 3.236,-5.972 5.625,-8.333c2.389,-2.361 5.181,-4.236 8.375,-5.625c3.194,-1.389 6.597,-2.083 10.208,-2.083c2.222,0 4.236,0.194 6.042,0.583c1.806,0.389 3.486,0.972 5.042,1.75c1.556,0.778 3.042,1.736 4.458,2.875c1.417,1.139 2.875,2.486 4.375,4.042c0.333,0.333 0.5,0.722 0.5,1.167c0,0.444 -0.167,0.833 -0.5,1.167c-0.333,0.333 -0.722,0.5 -1.167,0.5c-0.5,0 -0.972,-0.25 -1.417,-0.75Z" style="fill-rule:nonzero;"/><path d="M1405.385,390.462c0,-0.222 -0.028,-0.431 -0.083,-0.625c-0.056,-0.194 -0.056,-0.375 0,-0.542c0.056,-0.167 0.194,-0.292 0.417,-0.375c0.222,-0.083 0.611,-0.125 1.167,-0.125c0.611,0 1.069,0.167 1.375,0.5c0.306,0.333 0.458,0.722 0.458,1.167l0,30.667c0,2.333 0.444,4.528 1.333,6.583c0.889,2.056 2.097,3.847 3.625,5.375c1.528,1.528 3.319,2.722 5.375,3.583c2.056,0.861 4.25,1.292 6.583,1.292c2.333,0 4.528,-0.431 6.583,-1.292c2.056,-0.861 3.847,-2.056 5.375,-3.583c1.528,-1.528 2.75,-3.319 3.667,-5.375c0.917,-2.056 1.375,-4.25 1.375,-6.583l0,-30.667c0,-0.222 -0.028,-0.431 -0.083,-0.625c-0.056,-0.194 -0.056,-0.375 0,-0.542c0.056,-0.167 0.194,-0.292 0.417,-0.375c0.222,-0.083 0.611,-0.125 1.167,-0.125c0.611,0 1.069,0.167 1.375,0.5c0.306,0.333 0.458,0.722 0.458,1.167l0,30.583c0,2.833 -0.528,5.472 -1.583,7.917c-1.056,2.444 -2.5,4.583 -4.333,6.417c-1.833,1.833 -3.986,3.278 -6.458,4.333c-2.472,1.056 -5.125,1.583 -7.958,1.583c-2.833,0 -5.472,-0.528 -7.917,-1.583c-2.444,-1.056 -4.583,-2.5 -6.417,-4.333c-1.833,-1.833 -3.278,-3.972 -4.333,-6.417c-1.056,-2.444 -1.583,-5.083 -1.583,-7.917l0,-30.583Z" style="fill-rule:nonzero;"/><path d="M1491.718,390.379c0,0.444 -0.167,0.833 -0.5,1.167c-0.333,0.333 -0.722,0.5 -1.167,0.5l-17.25,0l0,47.583c0,0.444 -0.167,0.833 -0.5,1.167c-0.333,0.333 -0.722,0.5 -1.167,0.5c-0.444,0 -0.833,-0.167 -1.167,-0.5c-0.333,-0.333 -0.5,-0.722 -0.5,-1.167l0,-47.583l-17.25,0c-0.444,0 -0.833,-0.167 -1.167,-0.5c-0.333,-0.333 -0.5,-0.722 -0.5,-1.167c0,-0.444 0.167,-0.833 0.5,-1.167c0.333,-0.333 0.722,-0.5 1.167,-0.5l37.833,0c0.444,0 0.833,0.167 1.167,0.5c0.333,0.333 0.5,0.722 0.5,1.167Z" style="fill-rule:nonzero;"/><path d="M1485.135,415.045c0,-3.611 0.681,-7.014 2.042,-10.208c1.361,-3.194 3.236,-5.972 5.625,-8.333c2.389,-2.361 5.181,-4.236 8.375,-5.625c3.194,-1.389 6.597,-2.083 10.208,-2.083c3.611,0 7.014,0.694 10.208,2.083c3.194,1.389 5.972,3.264 8.333,5.625c2.361,2.361 4.236,5.139 5.625,8.333c1.389,3.194 2.083,6.597 2.083,10.208c0,3.611 -0.694,7.014 -2.083,10.208c-1.389,3.194 -3.264,5.986 -5.625,8.375c-2.361,2.389 -5.139,4.264 -8.333,5.625c-3.194,1.361 -6.597,2.042 -10.208,2.042c-3.611,0 -7.014,-0.681 -10.208,-2.042c-3.194,-1.361 -5.986,-3.236 -8.375,-5.625c-2.389,-2.389 -4.264,-5.181 -5.625,-8.375c-1.361,-3.194 -2.042,-6.597 -2.042,-10.208Zm3.333,0c0,3.167 0.597,6.139 1.792,8.917c1.194,2.778 2.833,5.208 4.917,7.292c2.083,2.083 4.514,3.722 7.292,4.917c2.778,1.194 5.75,1.792 8.917,1.792c3.167,0 6.139,-0.597 8.917,-1.792c2.778,-1.194 5.208,-2.833 7.292,-4.917c2.083,-2.083 3.722,-4.514 4.917,-7.292c1.194,-2.778 1.792,-5.75 1.792,-8.917c0,-3.167 -0.597,-6.139 -1.792,-8.917c-1.194,-2.778 -2.833,-5.208 -4.917,-7.292c-2.083,-2.083 -4.514,-3.722 -7.292,-4.917c-2.778,-1.194 -5.75,-1.792 -8.917,-1.792c-3.167,0 -6.139,0.597 -8.917,1.792c-2.778,1.194 -5.208,2.833 -7.292,4.917c-2.083,2.083 -3.722,4.514 -4.917,7.292c-1.194,2.778 -1.792,5.75 -1.792,8.917Z" style="fill-rule:nonzero;"/><path d="M1575.218,409.045c0,4.278 -1.125,7.944 -3.375,11c-2.25,3.056 -5.208,5.306 -8.875,6.75l11.917,11.583c0.278,0.278 0.444,0.667 0.5,1.167c0.056,0.5 -0.083,0.889 -0.417,1.167c-0.333,0.278 -0.722,0.431 -1.167,0.458c-0.444,0.028 -0.861,-0.125 -1.25,-0.458l-13.333,-12.75c-1.667,0.333 -3.389,0.5 -5.167,0.5l-9.167,0l0,11.167c0,0.444 -0.167,0.833 -0.5,1.167c-0.333,0.333 -0.722,0.5 -1.167,0.5c-0.444,0 -0.833,-0.167 -1.167,-0.5c-0.333,-0.333 -0.5,-0.722 -0.5,-1.167l0,-49.25c0,-0.222 -0.028,-0.431 -0.083,-0.625c-0.056,-0.194 -0.056,-0.375 0,-0.542c0.056,-0.167 0.194,-0.292 0.417,-0.375c0.222,-0.083 0.611,-0.125 1.167,-0.125l11,0c2.889,0 5.625,0.514 8.208,1.542c2.583,1.028 4.833,2.444 6.75,4.25c1.917,1.806 3.431,3.958 4.542,6.458c1.111,2.5 1.667,5.194 1.667,8.083Zm-3.333,0c0,-2.444 -0.472,-4.708 -1.417,-6.792c-0.944,-2.083 -2.222,-3.875 -3.833,-5.375c-1.611,-1.5 -3.5,-2.681 -5.667,-3.542c-2.167,-0.861 -4.472,-1.292 -6.917,-1.292l-9.167,0l0,33.083l9.167,0c2.444,0 4.75,-0.375 6.917,-1.125c2.167,-0.75 4.056,-1.819 5.667,-3.208c1.611,-1.389 2.889,-3.083 3.833,-5.083c0.944,-2 1.417,-4.222 1.417,-6.667Z" style="fill-rule:nonzero;"/></svg>