<?xml version="1.0" encoding="UTF-8" standalone="no"?><!DOCTYPE svg PUBLIC "-//W3C//DTD SVG 1.1//EN" "http://www.w3.org/Graphics/SVG/1.1/DTD/svg11.dtd"><svg width="100%" height="100%" viewBox="0 0 1866 462" version="1.1" xmlns="http://www.w3.org/2000/svg" xmlns:xlink="http://www.w3.org/1999/xlink" xml:space="preserve" xmlns:serif="http://www.serif.com/" style="fill-rule:evenodd;clip-rule:evenodd;stroke-linejoin:round;stroke-miterlimit:7;"><g><rect x="402.152" y="221.536" width="20.942" height="31.857"/><rect x="461.568" y="221.536" width="20.942" height="31.857"/><rect x="431.852" y="207.321" width="20.942" height="60.287"/><path d="M200.569,58.774c-19.775,0 -38.259,3.124 -55.452,9.371c-17.193,6.247 -32.115,15.574 -44.766,27.98c-12.651,12.406 -22.629,27.804 -29.934,46.193c-7.303,18.389 -10.954,39.814 -10.954,64.274c0,24.284 3.385,45.357 10.154,63.218c6.769,17.861 16.389,32.643 28.858,44.345c12.469,11.702 27.476,20.369 45.021,26c17.545,5.631 37.094,8.447 58.648,8.447c5.879,0 12.113,-0.308 18.704,-0.924c6.591,-0.616 13.225,-1.496 19.904,-2.64c6.681,-1.144 13.184,-2.464 19.508,-3.959c6.324,-1.496 11.98,-3.124 16.968,-4.883l0,38.01c-10.382,4.047 -22.436,7.171 -36.162,9.371c-13.726,2.2 -27.804,3.299 -42.233,3.299c-29.387,0 -55.431,-4.091 -78.132,-12.274c-22.7,-8.183 -41.749,-19.929 -57.147,-35.238c-15.398,-15.31 -27.056,-34.007 -34.974,-56.091c-7.919,-22.084 -11.878,-47.116 -11.878,-75.096c0,-27.452 4.179,-52.704 12.538,-75.756c8.359,-23.052 20.413,-42.849 36.162,-59.391c15.749,-16.541 34.842,-29.431 57.279,-38.67c22.436,-9.239 47.644,-13.858 75.624,-13.858c7.391,0 14.694,0.308 21.909,0.924c7.215,0.616 14.122,1.496 20.721,2.64c6.599,1.144 12.714,2.508 18.345,4.091c5.631,1.584 10.47,3.255 14.518,5.015l0,38.01c-10.69,-3.519 -22.361,-6.467 -35.012,-8.843c-12.648,-2.376 -25.387,-3.563 -38.216,-3.563Z" style="fill-rule:nonzero;"/><path d="M121.295,61.125c33.058,-40.422 75.117,-33.297 75.888,-31.985c0.901,1.534 0.364,1.76 0.351,8.135c-0.008,4.232 0.024,28.826 -0.025,29.2c-0.531,4.079 -10.915,-2.34 -28.521,3.069c-70.99,21.809 -63.374,185.239 -39.721,236.167c24.027,51.734 67.825,39.669 67.938,39.833c0.668,0.966 0.3,38.088 0.181,38.573c-0.647,2.635 -19.888,2.877 -35.782,-1.235c-75.931,-19.641 -88.435,-164.083 -73.394,-243.246c10.173,-53.542 31.688,-76.71 33.085,-78.513Z" style="fill-opacity:1;"/><path d="M179.805,362.507c-2.555,-2.864 -18.517,-20.757 -20.179,-43.521c-0.468,-6.405 -0.919,-8.082 1.76,-7.99c6.752,0.232 147.177,-0.237 148.172,0.25c0.954,0.467 1.115,23.37 -13.691,43.456c-2.676,3.63 -18.826,25.54 -47.608,30.175c-5.688,0.916 -41.751,6.723 -68.454,-22.37Z" style="fill-opacity:1;"/><path d="M310.516,288.107l0,13.58c0,3.748 -3.043,6.79 -6.79,6.79l-137.985,0c-3.748,0 -6.79,-3.043 -6.79,-6.79l0,-13.58c0,-3.748 3.043,-6.79 6.79,-6.79l137.985,0c3.748,0 6.79,3.043 6.79,6.79Z"/><path d="M310.516,105.565l0,13.58c0,3.748 -3.043,6.79 -6.79,6.79l-137.985,0c-3.748,0 -6.79,-3.043 -6.79,-6.79l0,-13.58c0,-3.748 3.043,-6.79 6.79,-6.79l137.985,0c3.748,0 6.79,3.043 6.79,6.79Z"/><path d="M179.805,44.796c-2.555,2.864 -18.517,20.757 -20.179,43.521c-0.468,6.405 -0.919,8.082 1.76,7.99c6.752,-0.232 147.177,0.237 148.172,-0.25c0.954,-0.467 1.115,-23.37 -13.691,-43.456c-2.676,-3.63 -18.826,-25.54 -47.608,-30.175c-5.688,-0.916 -41.751,-6.723 -68.454,22.37Z" style="fill-opacity:1;"/><path d="M1140.993,359.298l423.033,0l37.454,-320.649l131.984,320.649l38.076,-320.155l71.461,0m-1602.776,320.109l80.143,0.076l122.274,-319.951l119.269,319.921l386.434,0" style="fill:none;stroke:#000;stroke-width:37.5px;"/><g><path d="M1308.01,51.496c55.959,56.845 41.005,135.467 3.512,174.525c-18.752,19.535 -26.43,17.336 -22.649,22.708c23.245,33.031 51.441,70.898 55.99,77.007c4.193,5.632 -1.493,3.731 -3.363,3.729c-44.311,-0.041 -44.947,0.502 -46.638,-1.74c-12.987,-17.217 -47.898,-66.555 -50.286,-67.07c-0.571,-0.123 -39.609,-0.181 -40.191,-0.005c-1.608,0.488 -0.876,1.306 -1.259,66.343c-0.013,2.263 -0.391,2.46 -2.615,2.47c-2.878,0.014 -35.402,0.173 -35.971,0.059c-2.046,-0.412 -1.738,-1.424 -1.738,-46.524c0,-261.288 -0.074,-261.473 0.611,-262.114c0.127,-0.119 69.983,-1.518 86.134,0.831c29.626,4.309 47.385,19.198 58.464,29.78l-32.911,26.993c-2.832,-2.171 -12.879,-10.216 -27.671,-13.132c-10.842,-2.137 -43.469,-2.054 -44.103,-0.442c-0.022,0.055 -0.969,150.666 0.501,151.642c0.904,0.6 28.388,0.457 35.648,0.052c32.364,-1.805 59.645,-32.38 63.705,-61.661c6.434,-46.412 -17.237,-66.453 -28.08,-76.459l32.911,-26.993Z" style="fill-opacity:1;"/><path d="M733.988,63.592c40.492,50.604 35.135,136.57 -26.72,179.059c-3.499,2.403 -5.772,2.477 -3.28,5.996c19.693,27.805 51.467,70.877 55.988,77.006c0.185,0.251 2.869,3.89 0.678,3.835c-15.102,-0.375 -48.131,0.847 -49.824,-0.824c-1.256,-1.24 -48.93,-67.152 -50.284,-67.752c-0.872,-0.387 -40.854,-0.934 -41.821,0.275c-1.33,1.663 0.688,67.103 -1.112,67.982c-1.37,0.669 -25.935,0.062 -37.11,0.365c-3.064,0.083 -2.495,-1.682 -2.495,-32.534c0,-271.01 0.008,-271.004 -0.068,-273.995c-0.077,-3.035 1.671,-2.471 32.558,-2.471c55.702,-0 83.906,-3.8 123.488,43.057l-30.974,126.002c35.354,-47.768 10.6,-106.637 -32.66,-122.178c-16.333,-5.867 -51.418,-3.03 -51.457,-2.994c-0.639,0.584 -0.586,0.767 -0.583,143.578c0,6.087 -1.913,8.895 4.187,8.901c39.741,0.043 54.558,2.064 80.514,-27.307l30.974,-126.002Z" style="fill-opacity:1;"/><path d="M1405.992,127c0,77.889 -0.209,78.764 1.475,79.148c1.788,0.409 94.136,-0.546 95.316,0.516c0.803,0.723 0.692,0.948 0.688,38.336c-0,2.807 -0.128,3.448 -2.964,3.454c-92.345,0.201 -93.83,-1.141 -94.401,1.453c-0.003,0.013 -0.212,35.375 0.094,36.221c0.461,1.276 1.078,1.108 122.3,1.112c5.342,0 3.782,2.409 3.791,7.76c0.052,33.313 0.098,34.178 -1.715,34.443c-0.667,0.097 -154.877,-0.083 -161.071,0.092c-3.208,0.091 -2.612,-1.753 -2.612,-32.535c-0,-275.288 -0.066,-275.446 0.554,-276.061c0.728,-0.723 163.271,-0.557 164.164,-0.097c1.137,0.585 1.068,40.806 0.037,41.346c-2.325,1.219 -123.738,-0.42 -125.086,0.877c-1.125,1.081 -0.157,51.892 -0.569,63.936Z" style="fill-opacity:1;"/><path d="M784.567,20.493c36.323,0.126 36.456,-0.079 36.986,0.447c1.621,1.612 -0.543,264.373 1.143,265.84c1.204,1.048 121.784,0.163 124.776,0.478c2.148,0.226 1.766,1.374 1.765,33.742c-0,5.748 2.044,8.523 -3.736,8.466c-25.566,-0.253 -160.935,0.591 -161.962,-0.502c-0.492,-0.523 -0.439,-0.658 -0.439,-275.964c0,-30.357 -0.332,-30.701 1.468,-32.507Z"/></g><path d="M1133.863,87.371l0,175.258c0,36.907 -29.964,66.871 -66.871,66.871l-42.879,0c-36.907,0 -66.871,-29.964 -66.871,-66.871l0,-175.258c0,-36.907 29.964,-66.871 66.871,-66.871l42.879,0c36.907,0 66.871,29.964 66.871,66.871Zm-37.5,-0c0,-16.21 -13.161,-29.371 -29.371,-29.371l-42.879,0c-16.21,0 -29.371,13.161 -29.371,29.371l0,175.258c0,16.21 13.161,29.371 29.371,29.371l42.879,0c16.21,0 29.371,-13.161 29.371,-29.371l0,-175.258Z"/><path d="M1045.552,314.631l0,44.667l-73.435,0l145.662,0l-72.227,0" style="fill:none;stroke:#000;stroke-width:37.5px;stroke-linejoin:miter;"/><path d="M978.927,234.979l33.316,0" style="fill:none;stroke:#000;stroke-width:33.33px;stroke-linejoin:miter;"/><path d="M978.927,175l33.316,0" style="fill:none;stroke:#000;stroke-width:33.33px;stroke-linejoin:miter;"/><path d="M978.927,114.982l33.316,0" style="fill:none;stroke:#000;stroke-width:33.33px;stroke-linejoin:miter;"/><path d="M1080.29,114.982l33.316,0" style="fill:none;stroke:#000;stroke-width:33.33px;stroke-linejoin:miter;"/><path d="M1080.29,175l33.316,0" style="fill:none;stroke:#000;stroke-width:33.33px;stroke-linejoin:miter;"/><path d="M1080.29,234.951l33.316,0" style="fill:none;stroke:#000;stroke-width:33.33px;stroke-linejoin:miter;"/></g></svg>