<svg height="1172" viewBox="0 -1 2560 1201" width="2500" xmlns="http://www.w3.org/2000/svg"><path d="m907.5 0 14.5.5-14.5.5zm22 0 13.5.5-13.5.5zm-43 1 3.5.5-3.5.5zm75 0 3.5.5-3.5.5zm14 1 2.5.5-2.5.5zm-113 1 2.5.5-2.5.5zm398 99 1 2zm-334 10 26.5.5-26.5.5zm-352 1-1 2zm418 5 2 3zm-430 4-1 2zm-4 3-1 2zm735 1 1 2zm-740 3-1 2zm-5 4-1 2zm755 1 1 2zm-760 3-1 2zm765 1 2 3zm-452 1 .5 28.5h-1zm-319 3-2 3zm778 2 1 2zm-786 5-2 3zm793 1 3 4zm-802 7-4 5zm812 2 7 8zm28 28 5 6zm-873 3-4 5zm885 10 2 3zm-896 2-2 3zm903 6 2 3zm-910 2-1 2zm916 5 1 2zm-921 1-2 3zm739 2-1 2zm31 1 1 2zm156 2 1 2zm-931 1-1 2zm739 0-3 4zm40 0 2 3zm-584 2 4 5zm-38 1-8 9zm778 1 1 2zm-939 1-1 2zm732 7-16 17zm214 1 1 2zm-953 1-1 2zm222 3 6 7zm734 0 1 2zm-959 1-1 2zm812 1 5 6zm150 2 1 2zm-965 1-1 2zm153 3-7 8zm674 7 4 5zm-580 3 6 7zm728 0 1 2zm-139 7 3 4zm-703 4-10 11zm132 6 7 8zm580 0 3 4zm9 10 2 3zm5 6 1 2zm7 15 .5 5.5h-1zm-750 23 60.5 61.5h-1zm740 1-4 5zm-15 15-10 11zm-25 24-6 7zm-18 17-1.5 2.5-.5 1.5-.5-1.5zm-779 59 94.5.5-94.5.5zm1178 38 101.5.5-101.5.5zm122 1 2.5.5-2.5.5zm-1546 2 3.5.5-3.5.5zm674 0 .5 56.5h-1zm249 0 .5 82.5h-1zm971 0 5.5.5-5.5.5zm-1881 1 2.5.5-2.5.5zm2309 8 1 2zm-10 2 2.5.5-2.5.5zm5 1 1 2zm-721 1 2 3zm359 3 1 2zm-1898 1 3 4zm1543 0 2 3zm704 7 5.5.5-5.5.5zm-339 2 1 2zm359 12-1 2zm-915 15-1 2zm762 0-1 2zm-558 1 .5 4.5h-1zm-1109 3 .5 173.5h-1zm1236 0 .5 114.5h-1zm-1743 2 1 2zm1335 2 .5 19.5h-1zm567 4 2 3zm-1827 5 .5 2.5h-1zm1907 1 .5 6.5h-1zm-1977 4 .5 2.5h-1zm-4 11-1 2zm1442 1 11.5.5-11.5.5zm94 1 6.5.5-6.5.5zm18 1 2.5.5-2.5.5zm-1489 10-5 6zm1543 6 4 5zm-263 15 3 4zm-1278 4 1 2zm5 5 1 2zm1333 10 3.5.5-3.5.5zm21 1 8.5.5-8.5.5zm83 1 5.5.5-5.5.5zm115 1 .5 2.5h-1zm-699 1 .5 87.5h-1zm623 5 1 2zm433 5 .5 6.5h-1zm-577 3 .5 3.5h-1zm499 5-3 4zm-1896 8-2 3zm1542 5-3 4zm-140 1 3 4zm-1026 1 .5 54.5h-1zm1585 27-1 2zm-1896 7-1 2zm1542 0-1 2zm-1549 7-1 2zm1286 1 1 2zm-1328 12 3.5.5-3.5.5zm1876 0 3.5.5-3.5.5zm-503 2 2.5.5-2.5.5zm151 0 3.5.5-3.5.5zm-131 1 107.5.5-107.5.5zm-1283 34 5.5.5-6.5 1.5zm105 1 33.5.5-33.5.5zm125 1h15l1.5 1.5-1.5-.5h-15zm443 12 2.5.5-2.5.5zm644 0 2.5.5-2.5.5zm53 0 3.5.5-3.5.5zm748 0 3.5.5-3.5.5zm53 0 2.5.5-2.5.5zm-361 1 5.5.5-5.5.5zm70 0 .5 107h12.5l.5-.5v-106h1v106l-1.5 1.5h-13l-.5-.5zm-1184 6 4 5zm1502 0 1 2zm-105 1-1 2zm-252 1 3 4zm-1233 2 57.5.5-57.5.5zm306 0 1 2zm411 0 40.5.5-40.5.5zm634 0 68.5.5-68.5.5zm96 0 1 2zm71 0 40.5.5-40.5.5zm-1027 1 90.5.5-91 .5-.5 34-.5-33.5zm326 0 53.5.5-53.5.5zm69 0 53.5.5-53.5.5zm242 0 77.5.5-77.5.5zm-696 3-1 2zm1148 0 3 4zm-885 1-2 3zm801 0-2 3zm-274 1 2 3zm-926 3 1 2zm381 4 .5 2.5h-1zm13 2 .5 2.5h-1zm-267 2-1 2zm-17 1-1 2zm1034 1 .5 3.5h-1zm-124 2 .5 2.5h-1zm-626 1 .5 2.5h-1zm764 1 .5 41.5h-1zm37 0 .5 2.5h-1zm-1077 7-1 2zm817 1 .5 4.5h-1zm-902 2 1 2zm916 2 .5 17.5h-1zm-529 2 51.5.5-51.5.5zm800 0 51.5.5-51.5.5zm-834 2 2 3zm801 0 3 4zm-1147 4 1 2zm456 1 4 5zm-693 1 .5 18.5h-1zm222 0 1 2zm1273 0 2 3zm-1104 3 .5 37.5h-1zm224 1 4.5.5-4.5.5zm800 0 5.5.5-5.5.5zm-1131 2-1 2zm848 1 .5 4.5h-1zm354 3 1 2zm-1500 1 .5 14.5h-1zm245 2 1 2zm470 1 .5 2.5h-1zm801 1 .5 13.5h-1zm-1451 2 1 1 71.5.5-73 .5zm637 1 .5 2.5h-1zm-1151 1-2 3zm1054 0 .5 9.5h-1zm626 0 .5 2.5h-1zm272 0 .5 6.5h-1zm-148 1 .5 3.5h-1zm-1051 1-1 2zm398 2 .5 3.5h-1zm-110 4 .5 3.5h-1zm123 0 .5 2.5h-1zm691 0 .5 2.5h-1zm-13 1 .5 2.5h-1zm-394 1 .5 2.5h-1zm-725 2 1 2zm-277 3-1 2zm298 0-1 2zm404 1-3 4zm709 0 3 4zm92 0-2 3zm-892 1 2 3zm282 0 1 2zm-896 1-1 2zm1354 0-1 2zm-851 4 .5 10.5-1.5 1.5h-104v-1h104l.5-.5zm653 0-2 3zm87 0 1 2zm-1708 1-8 9zm390 0 58.5.5-58.5.5zm89 0-1 2zm620 0 48.5.5-48.5.5zm280 0 57.5.5-57.5.5zm360 0 63.5.5-63.5.5zm160 0 50.5.5-50.5.5zm-831 1 3 4zm801 0 1 2zm-404 1-3 4zm-724 5 1 2zm-225 2-1 2-15.5-.5 15.5-.5zm128 0 .5 2-16-.5 14.5-.5zm110 0-1 2-9.5-.5 9.5-.5zm-91 1 13.5.5-13.5.5zm157 0 13.5.5-13.5.5zm437 0 13.5.5-13.5.5zm242 0 91.5.5-91.5.5zm-1117 1 3.5.5-3.5.5zm70 0 3.5.5-3.5.5zm642 0 4.5.5-4.5.5zm55 0 5.5.5-5.5.5zm224 0 3.5.5-3.5.5zm65 0 3.5.5-3.5.5zm295 0 3.5.5-3.5.5zm73 0 3.5.5-3.5.5zm88 0 5.5.5-5.5.5zm57 0 4.5.5-4.5.5zm-1964 3-1 2zm-2 33 1 2zm167 3-40 41zm417 1 9 10zm-566 14 22 23zm602 21 17 18zm-722 17 1 2zm4 5 1 2zm163 3 1 2zm-159 2 1 2zm4 5 1 2zm5 6 2 3zm749 5 17 18zm-742 3 2 3zm9 10 5 6zm30 30 5 6zm747 0 17 18zm-735 11 2 3zm8 7 2 3zm7 6 1 2zm6 5 1 2zm5 4 1 2zm738 6-1 2zm-729 1 1 2zm4 3 1 2zm713 5-1 2zm-7 5-1 2zm-277 106 2.5.5-2.5.5zm-120 2 2.5.5-2.5.5zm100 0 2.5.5-2.5.5zm-86 1 3.5.5-3.5.5zm71 0 3.5.5-3.5.5zm-48 1 28.5.5-28.5.5z" fill="#1d181a" opacity=".89" stroke="#1d181a"/><g fill="#1d1a1b" stroke="#1d1a1b"><path d="m891.5 0 6.5.5-6.5.5zm62 0 5.5.5-5.5.5zm-77 1 4.5.5-4.5.5zm94 0 3.5.5-3.5.5zm-105 1 3.5.5-3.5.5zm117 0 2.5.5-2.5.5zm-126 1 2.5.5-2.5.5zm136 0 2.5.5-2.5.5zm8 1 2.5.5-2.5.5zm-160 1 2.5.5-2.5.5zm-7 1 2.5.5-2.5.5zm-6 1 2.5.5-2.5.5zm194 0 2.5.5-2.5.5zm-387 67-1 2zm594 7 1 2zm-608 1-1 2zm613 2 1 2zm-618 1-1 2zm623 2 1 2zm8 5 1 2zm-647 3-1 2zm-3 2-1 2zm-3 2-1 2zm-3 2-1 2zm-3 2-1 2zm680 3 1 2zm-687 2-1 2zm690 0 1 2zm-693 2-1 2zm697 1 1 2zm-701 2-1 2zm310 0 21.5.5-21.5.5zm79 0 13.5.5-13.5.5zm315 0 1 2zm-707 2-1 2zm711 1 1 2zm-413 1-1 2zm-302 1-1 2zm425 0 3 4zm294 1 1 2zm-421 1-1 2zm-302 1-2 3zm727 1 2 3zm-731 2-2 3zm735 1 2 3zm-740 3-2 3zm745 1 2 3zm-750 3-2 3zm755 1 2 3zm-760 3-3 4zm765 1 3 4zm-773 6-2 3zm780 0 3 4zm-786 5-4 5zm793 1 5 6zm-802 7-8 9zm812 2 11 12zm-475 22 .5 6.5h-1zm497 0 9 10zm-355 1 .5 48.5 1 1-2-1zm-510 6-8 9zm368 1 .5 28.5h-1zm508 3 1 2zm5 6 5 6zm-893 3-4 5zm901 6 4 5zm-908 2-3 4zm914 5 3 4zm-170 1 3.5.5-3.5.5zm5 0 2.5.5-2.5.5zm-755 1-1 2zm740 3-1 2zm-579 1-1 2zm608 0 1 2zm156 0 2 3zm-930 2-2 3zm163 0-1 2zm27 0 1 2zm551 0-7 8zm37 1 3 4zm-619 2-14 15zm35 0 5 6zm741 1 1 2zm-939 1-2 3zm942 3 2 3zm-946 2-1 2zm738 2-28 29zm212 1 1 2zm-953 1-2 3zm218 1 11 12zm738 2 2 3zm-959 1-1 2zm810 1 8 9zm152 2 1 2zm-965 1-1 2zm155 3-13 14zm813 0 1 2zm-971 1-1 2zm974 3 1 2zm-729 3 11 12zm-250 1-1 2zm834 0 6 7zm149 2 1 2zm-985 1-1 2zm988 3 1 2zm2 3 1 2zm-145 1 5 6zm147 2 1 2zm-847 1-16 17zm849 2 1 2zm-723 2 11 12zm725 1 1 2zm-142 2 5 6zm-868 4-1 2zm1015 2 1 2zm-138 4 3 4zm-882 2-1 2zm145 1-1 2zm880 1 1 2zm-138 2 2 3zm-890 1-1 2zm1031 2 1 2zm-1034 3-1 2zm-4 7-1 2zm147 1 .5 6.5h-1zm899 3 1 2zm-144 11-1 2zm150 0 1 2zm-900 5 1 2zm747 0-1 2zm-745 3 62 63zm742 1-32 33zm-41 40-10 11zm-17 16-2 3zm-649 61-1 2-11.5-.5 11.5-.5zm1027 38 5.5.5-5.5.5zm136 0 3.5.5-3.5.5zm754 0-1 2zm31 0 1 2zm-931 1 2.5.5-2.5.5zm159 0 2.5.5-2.5.5zm-1768 1 211.5.5-211.5.5zm339 0 253.5.5-253.5.5zm280 0 270.5.5-270.5.5zm297.5 0 72 .5-71 .5v230.5l.5.5h70v1h-71l-.5-.5zm221.5 0h71l.5.5v232.5l-72-.5 71-.5v-230.5l-.5-.5h-70zm116 0h253l.5.5v54h-1v-53l-.5-.5h-252.5v231h257l.5-56 .5 57h-257.5l-1.5-1.5v-230zm521 0 2.5.5-2.5.5zm110 0 216.5.5-217 .5v231h224.5v1h-224l-1.5-1.5v-230zm455 0h92l1.5 1.5-1.5-.5h-92l-1 1zm-2115 1 2.5.5-2.5.5zm1895 0 3.5.5-3.5.5zm401 0 7.5.5-7.5.5zm-392 1 2.5.5-2.5.5zm-1890 1 2.5.5-2.5.5zm2274 1-1 2zm23 0 1 2zm-101 1 1 2zm76.5 2 20 .5-19 .5v30.5l-1 1 .5 1.5q-2.7-1.2-.5-2.5zm25.5 2 1 2zm-30 1-1 2zm-699 1 1 2zm526 0-1 2zm-523 2 7 8z" opacity=".169"/><path d="m2519.5 497 .5 7 11 .5-12 .5zm12 0 1 2zm-2263 1 1 2zm1899 0 1 2zm3 2 2 3zm-1898 1 4 5zm2281 1 .5 3.5h-1zm-57 1 .5 7.5h-1zm7 1 .5 5.5h-1zm43 0 .5 5.5h-1zm-988 1-2 3zm-1280 3 1 2zm2275 0 .5 2.5h-1zm-732 1 1 2zm625 0 1 2zm87 0 1.5.5-2 1 .5 1.5q-3-1.5 0-3zm-353 1 1 2zm339 0 .5 12.5h-1zm25 6-1 2zm-8 1 1 2zm-215 2-1 2zm186 0 1 2zm35 0-5 6zm-43 1 1 2zm51 0-1 2zm-49 3 1 2zm47 0-1 2zm-25 5 3.5.5-3.5.5zm-66 1 1 2zm85 0-1 2zm-714 2 .5 2.5h-1zm-189 3 94.5.5-94.5.5zm-92 1 .5 3.5h-1zm974 0 7.5.5-7.5.5zm-2233 3 .5 15.5h-1zm1337 0-2 3zm127 1 2 3zm-131 3-1 2zm-831 1 .5 174-72-.5 71-.5zm1518 0-1 2zm-2097 1 2 3zm1983 4 .5 2.5h-1zm-576 1 .5 7.5h-1zm139 0 .5 4.5h-1zm72 0 .5 8.5-1.5 1.5h-70v-1h70l.5-.5zm283 0 4 5zm356 0 1 2zm-351 6 1 2zm-1830 6 .5 2.5h-1zm1334 3 1 2zm674 3-1 2zm184 2 1 2zm-2266 1-2 3zm1423 0 2.5.5-2.5.5zm11 1 5.5.5-5.5.5zm-100 1 .5 3.5h-1zm189 0 10.5.5-10.5.5zm25 1 4.5.5-4.5.5zm362 2 .5 6.5h-1zm-1842 6-1 2zm-2 3-6 7zm1538 2 1 2zm4 3 5 6zm-1550 2-1 2zm1557 6 1 2zm-1573 1 1 2q-2.8.7-1-2zm1298 1 1 2zm-1276 7 1 2zm1282 1 2 3zm-1279 1 7 8zm1284 3 1 2zm-1276 6 1 2zm1835 0 .5 6.5h-1zm384 3 1 2zm-906 3 2.5.5-2.5.5zm8 1 3.5.5-3.5.5zm-1403 1 2.5.5-2.5.5zm1417 0 5.5.5-5.5.5zm33 1 49.5.5-49.5.5zm74 1 4.5.5-4.5.5zm-1514 1 1 2zm1526 0 2.5.5-2.5.5zm380 1 .5 2.5h-1zm-284 2 .5 4.5h-1zm-78 2 2 3zm-214 7 .5 22.5h-1zm972 0 1 2zm-2295 1 .5 4.5h-1zm73 1 .5 4.5h-1zm1469 3 .5 3.5h-1zm351 0-4 5zm78 5 .5 2.5h-1zm55 2-1 2zm-2029 1-3 4zm1875 2 2.5.5-2.5.5zm-139 1 131.5.5-131.5.5zm-118 1 .5 4.5h-1zm-76 1-4 5zm-140 1 3 4zm907 1 1 2zm-2233 2 .5 3.5h-1zm1342 4 7.5.5-7.5.5zm100 0 5.5.5-5.5.5zm99 2 .5 2.5h-1zm479 7 142.5.5-142.5.5zm-80 1-1 2zm304 4 1 2zm-356 5-1 2zm-2 3-2 3zm-351 2-1 2zm-277 3 1 2zm623 1-1 2zm-1892 2-2 3zm1271 0 1 2zm271 0-2 3zm345 2-2 3zm-349 2-3 4zm400 0-1 2zm328 0 1 2zm-2271 1-3 4zm1888 0-1 2zm-605 2 2 3zm-1288 2-1 2zm1292 1 1 2zm248 0-1 2zm-1571 9 2.5.5-2.5.5zm1877 0 3.5.5-3.5.5zm-2121 1 234.5.5-234.5.5zm339 0 257.5.5-257.5.5zm1256 0 2.5.5-2.5.5zm185 0 2.5.5-2.5.5zm435 0 79.5.5-79.5.5zm266 0 78.5.5-78.5.5zm-879 1 2.5.5-2.5.5zm168 0 3.5.5-3.5.5zm-157 1 5.5.5-5.5.5zm138 0 7.5.5-7.5.5zm-1356 34 42.5.5-42.5.5zm134 1 41.5.5-41.5.5zm423 12 64.5.5-64.5.5zm716 0 46.5.5-46.5.5zm635 0 72.5.5-72.5.5zm166 0 45.5.5-45.5.5zm-813 1 2.5.5-2.5.5zm801 0 2.5.5-2.5.5zm67 0 2.5.5-2.5.5zm-1294 1 .5 107.5h-1zm306 0 .5 11.5h-1zm358 0 .5 11.5h-1zm33 0 .5 84.5h-1zm112 0 .5 81.5h-1zm27 0 .5 107.5h-1zm-936 1-1 2zm248 0-1 2zm-444 1-1 2zm322 1 1 2zm120 1-1 2zm265 0-1 2zm641 0-1 2zm114 0 3 4zm-653 1 5 6zm801 0 5 6zm-1616 1-2 3zm199 0-1 2zm131 0 1 2zm380 0-2 3zm801 0-2 3zm-1395 1 3 4zm1143 0 4 5zm-814 1-1 2zm-113 1 1 2zm1141 0 1 2zm-125 1-1 2zm-1326 1 2.5.5-2.5.5zm65 0 3.5.5-3.5.5zm109 0-1 2zm247 0-1 2zm293 0 4.5.5-4.5.5zm50 0 4.5.5-4.5.5zm660 0 2.5.5-2.5.5zm91 0 4.5.5-4.5.5zm49 0 5.5.5-5.5.5zm-353 1 3.5.5-3.5.5zm242 0 1 2zm-1140 1 1 2zm106 1-1 2zm1016 0 1 2zm-1445 1-2 3zm710 0-3 4zm83 0 3 4zm718 0-3 4zm83 0 2 3zm-1287 1 1 2zm18 0 1 2zm910 0 4 5zm-1140 2 1 2zm349 0-1 2zm-240 1 1 2zm17 0 1 2zm106 0 1 2zm-17 1 1 2zm114 1-1 2zm18 0-1 2zm370 1 .5 8.5h-1zm-700 1 .5 10-15-.5 14-.5zm200 0 1 2zm18 0 1 2zm1283 0 .5 7.5h-1zm-1406 1 1 2zm17 0 1 2zm1106 1 .5 2.5h-1zm161 0 .5 7.5h-1zm-1177 1 1 2zm18 0 1 2zm1136 0 .5 2.5h-1zm-1277 2-1 2zm246 0-1 2zm821 0 .5 2.5h-1zm-1031 1 1 2zm107 0 1 2zm83 2-1 2zm-439 1 .5 43.5h-1zm15 1 .5 41.5h-1zm178 0-1 2zm17 0-1 2zm131 0 1 2zm96 1-1 2zm18 0-1 2zm826 1 .5 3.5h-1zm-938 1 1 2zm18 0 1 2zm905 0 .5 3.5h-1zm-831 1-1 2zm18 0-1 2zm898 0 .5 33.5h-1zm-1161 1-1 2zm155 1 1 2zm18 0 1 2zm69 2-1 2zm18 0-1 2zm-263 2-1 2zm243 1-1 2zm18 0-1 2zm-206 2 1 2zm108 0 1 2zm18 0 1 2zm375 0 3.5.5-3.5.5zm801 0 5.5.5-5.5.5zm-1116 1-1 2zm18 0-1 2zm362 0 2.5.5-2.5.5zm-456 2 1 2zm18 0 1 2zm347 0 3 4zm801 0 3 4zm-1318 1-1 2zm45 1 1 2zm17 0 1 2zm92 1 1 2zm18 0 1 2zm51 2-1 2zm18 0-1 2zm388 0 3 4zm801 0 3 4zm-1938 1-30 31zm505 0-1 2zm68 1 1 2zm110 0 1 2zm46 1-1 2zm18 0-1 2zm88 1 87.5.5-87.5.5zm-168 1 1 2zm18 0 1 2zm364 0 3.5.5-3.5.5zm801 0 2.5.5-2.5.5zm-1348 1-1 2zm225 0-1 2zm18 0-1 2zm322 0 46.5.5-46.5.5zm799 0 48.5.5-48.5.5zm-1290 1 1 2zm93 1 1 2zm18 0 1 2zm1239 1 1 2zm-1202 1-1 2zm-242 1-1 2zm-108 1 54.5.5-54.5.5zm348 1-1 2zm18 0-1 2zm-177 1 1 2zm1011 0 .5 2.5h-1zm15 0 .5 2.5h-1zm-915 1 1 2zm18 0 1 2zm-213 1-1 2zm241 0-1 2zm18 0-1 2zm-62 2 1 2zm18 0 1 2zm42 1-1 2zm285 0 13.5.5-13.5.5zm801 0 13.5.5-13.5.5zm-1346 2-1 2zm202 0 1 2zm37 2-1 2zm-272 2 .5 2.5h-1zm256 0 1 2zm1099 0 .5 2.5h-1zm-1085 1-1 2zm18 0-1 2zm929 0 .5 2.5h-1zm-977 2 1 2zm18 0 1 2zm-112 1 1 2zm140 0-1 2zm-242 2h86l1.5 1.5-1.5-.5h-86zm198 0 1 2zm18 0 1 2zm599 0 .5 2.5h-1zm-575 1-1 2zm842 0-1 2zm-1243 1 1 2zm382 0-2 3zm-116 1 1 2zm95 0 1 2zm1093 0-1 2zm-1355 1-4 5zm703 0-3 4zm-404 1-1 2zm313 0 2 3zm282 0 2 3zm246 0-1 2zm273 0 3 4zm90 0-2 3zm-151 1-1 2zm-1446 1 1 2zm1351 0 1 2zm-1087 1 1 2zm127 0-1 2zm-240 1-1 2zm-43 1-1 2zm253 0 1 2zm143 0 91.5.5-91.5.5zm188 0 1 2zm449 0 79.5.5-79.5.5zm-1158 1 1 2zm94 0 3.5.5-3.5.5zm312 0-1 2zm330 0 4.5.5-4.5.5zm59 0 4.5.5-4.5.5zm32 0-1 2zm191 0 3.5.5-3.5.5zm64 0 2.5.5-2.5.5zm30 0-1 2zm154 0-3 4zm112 0 3.5.5-3.5.5zm71 0 2.5.5-2.5.5zm88 0 3.5.5-3.5.5zm59 0 4.5.5-4.5.5zm32 0-1 2zm-1983 1-11 12zm504 0-1 2zm842 0 1 2zm361 0 1 2zm126 0-5 6zm-1355 1-5 6zm257 0 1 2zm331 0 4 5zm801 0 4 5zm-687 1-2 3zm285 0-4 5zm151 1-1 2zm-879 1 1 2zm974 0 2 3zm-1350 1 1 2zm140 0-1 2zm123 0 1 2zm552 0-1 2zm801 0-1 2zm-1221 1-1 2zm316 0 1 2zm801 0 1 2zm-1133 2 1 2zm14 1-1 2zm841 1 2.5.5-2.5.5zm-509 1 2.5.5-2.5.5zm72 0 2.5.5-2.5.5zm729 0 2.5.5-2.5.5zm72 0 2.5.5-2.5.5zm-1571 1 60.5.5-60.5.5zm713 0 43.5.5-43.5.5zm279 0 53.5.5-53.5.5zm358 0 64.5.5-64.5.5zm163 0 44.5.5-44.5.5zm-1914 2-2 3zm-3 4-1 2zm-144 25 1 2zm142 0 1 2zm2 3 2 3zm166 4-61 62zm-305 1 1 2zm724 0 15 16zm-721 5 1 2zm2 3 1 2zm149 2 8 9zm-147 1 1 2zm6 9 1 2zm151 0 25 26zm-149 3 1 2zm2 3 1 2zm739 5 6 7zm-734 2 1 2zm2 3 1 2zm740 3 20 21zm-737 1 1 2zm3 4 1 2zm3 4 2 3zm3 4 2 3zm4 5 2 3zm163 1 4 5zm-159 4 2 3zm165 1 1 2zm31 0-1 2zm-3 2-1 2zm-189 2 3 4zm5 6 4 5zm747 1 6 7zm-740 7 4 5zm748 1 19 20zm-365 5 .5 32.5h-1zm-375 3 9 10zm27 27 7 8zm749 0 6 7zm8 8 19 20zm-748 1 1 2zm6 5 4 5zm8 7 4 5zm7 6 3 4zm6 5 2 3zm5 4 2 3zm6 5 1 2zm735 2-2 3zm-731 1 1 2zm433 1-1 2zm294 1-2 3zm-723 1 1 2zm300 1 2 3zm419 1-2 3zm-715 1 1 2zm300 1 1 2zm411 1-1 2zm-707 1 1 2zm307 2 95.5.5-95.5.5zm396 0-1 2zm-3 2-1 2zm-693 1 1 2zm3 2 1 2zm686 0-1 2zm-3 2-1 2zm-6 4-1 2zm-3 2-1 2zm-3 2-1 2zm-653 2 1 2zm650 0-1 2zm-647 2 1 2zm639 3-1 2zm-631 2 1 2zm10 6 1 2zm14 8 1 2zm19 10 1 2zm162 55 2.5.5-2.5.5zm18 3 2.5.5-2.5.5zm180 0 2.5.5-2.5.5zm-173 1 2.5.5-2.5.5zm166 0 2.5.5-2.5.5zm-159 1 3.5.5-3.5.5zm9 1 2.5.5-2.5.5zm134 0 2.5.5-2.5.5zm-125 1 3.5.5-3.5.5zm115 0 2.5.5-2.5.5zm-103 1 3.5.5-3.5.5zm90 0 4.5.5-4.5.5zm-75 1 6.5.5-6.5.5zm58 0 5.5.5-5.5.5z" opacity=".169"/></g><g fill="#1e191a" stroke="#1e191a"><path d="m922.5 0q5.5-1.5 7 1h31l1 1 24 1 1 1 17 1 1 1h6l25 5h5l60 15 58 21q118.9 51.6 201.5 139.5 52.5 55 91 124 20.4 36.6 36 78l12 35 7 27.5h-239.5l-1.5-1.5-25-57-1-5 60-58 8-12 2-7v-5q-2.7-11.8-10-19l-36-40-24.5-24.5q-5.8-5.7-15-8h-11q-11.1 3.4-17.5 11.5l-59.5 61.5-135.5-57v-95.5l-2-9-5.5-7.5-12-5-54-1-1 1h-47q-12 2-17.5 10.5l-4 9q1.5 5.5-1 7v28l1 1v62.5l-137.5 55-65-62-12-7-10-1-11 5-13.5 12.5-51 54-7 14v12q2.3 9.2 8 15l60 60v2l-26 54.5h-35.5l-1-1-209.5-.5q24-86 66-154 43.8-71.7 103.5-127.5 79.2-75.3 189-120l49-17 57-14h5l18-4h6l1-1h6l1-1 27-2 1-1 46-1zm1598 479q20.4-.9 27.5 11.5l5 12v9q-2.7 11.3-10.5 17.5-7.1 6.4-21 6-12.1-2.4-18.5-10.5-7-7-6-22 2.4-12.6 11.5-18.5zm-.5 6-7 3q-8 4-10 14-2 13 4 19 5 6 13 8 13 2 19-4 6-4 8-12 2-13-3-18-6-12-24-10zm-901.5-2h142l1 1 16 1 19 5 18.5 11 5 6.5 5 10 3 14 1 26.5h-69.5l-1.5-1.5v-10l-4-7.5-14.5-5h-104l-11 4-4.5 4.5-2 4v13q1.4 6.1 6.5 8.5l9 3 21 1 1 1h93l1 1h17l1 1 17 1 23 6q12.9 5.1 20.5 15.5l5 9 4 16q-1.7 6.3 1 8v32l-5 23q-3.9 10.1-11.5 16.5-9.6 7.4-23 11l-16 3h-7l-1 1h-14l-1 1h-147l-1-1-16-1-16-4q-13.2-4.7-21.5-14.5-7.6-9.4-10-24l-1-32.5h69.5l.5 3.5 2 11 6.5 8.5 9 3h114l11-4 3.5-3.5q4.8-6.2 3-19l-4.5-7.5-9-4-11-1-1-1h-12l-1-1h-79l-1-1h-25l-1-1-21-1-25-6q-12.2-4.7-19.5-14.5l-6-14-2-11v-43l4-17q4.4-11.6 13.5-18.5 9.6-7.4 23-11l13-3 16-1zm-1618.5 2h214.5l1 1h12l1 1 13 1 14 4q14.2 5.3 22.5 16.5l8 17 1 11 1 1v17l-1 1-1 13-3 9-11.5 13.5q-7.3 5.4-17.5 7-1.2 3 2.5 2l15 4 13.5 9.5 6 9 4 13q-1.5 5.5 1 7v24l-2 11-4 11-10.5 13.5q-7.7 6.8-19 10l-14 3h-10l-1 1h-235.5zm71 55v37h132l10-4q4-4 5-10l-1-12-3-5-4-4-7-2zm0 84v37h136l12-4 5-8q2-11-2-16l-4-5-12-4zm269-139h251.5l.5.5v52.5h-181.5l-.5.5v37.5h172.5l.5.5v46.5h-172.5l-.5.5v37.5h185.5l.5.5v54.5h-256zm280 0h268.5l.5.5v56.5h-99v174h-70v-174h-100zm298 0h70v83h151v-83h70v230.5l-.5.5h-69.5v-88h-151v88h-70zm336 0h252.5l.5.5v52.5h-181.5l-.5.5v37.5h171.5l.5.5v46.5h-171.5l-.5.5v37.5h185.5l.5.5v54.5h-257zm631 0h223.5l1 1h15l1 1 17 2 15 5q13.7 5.8 22.5 16.5l9 16 5 21v15l1 1v74l-1 1-1 22-5 17q-6 13-16.5 21.5-10.5 8-25 12l-14 3-20 1-1 1h-226.5zm70 57v115h140l12-3 7-4 8-12 2-9v-58l-3-11-4-7-10-8-14-3zm386.5-57h91l.5 1.5 126 229.5h-77.5l-.5-1.5-21-39.5h-144.5l-1.5 1.5-20.5 39.5-77.5-.5zm45.5 53-45 87v1h91z" opacity=".996"/><path d="m2513 492h19.5l6.5 4.5 1 6-3.5 5.5-5.5 1.5 7 12.5q-5.4 1.5-7-1.5l-6.5-11.5h-5.5v13h-6zm6 4v9h13q3-1 2-6-5-5-15-3zm-2173 257 229.5 1 1 1h15l1.5 1.5 26 57-31 30-34 36-6 13v8l5 11 40.5 40.5 30 28q6.8 5.7 20 5l11-5 66-65h2l124 52 10.5 5.5v90l2 10 3 6 6.5 6.5 8 3h103q10-2 14.5-9.5l5-12q-1.5-5.5 1-7v-88l1.5-1.5 136-54 158.5 154.5q.8 2.3-1.5 1.5-80.5 65.5-191 101l-49 13-52 9-28 2-1 1h-14l-1 1h-66l-1-1h-14l-1-1-28-2-61-11-37-10-27-9-49-20q-107.8-50.7-184.5-132.5-51.3-53.7-89-121-20.3-36.2-36-77l-15-44z" opacity=".996"/><path d="m951.5 766h67q1.8 2.7 8 1l14 5 7.5 7.5 4 11v8.5h-13v-7.5q-1.1-7.4-6.5-10.5l-9-3h-11l-1-1h-57l-12 3-4.5 3-5 11.5v53q1.8 9.3 8.5 13.5l7 3h9l1 1h58l1-1 11-1 8.5-6.5q4.9-8.8 3-23.5h-55.5l-.5-.5v-10.5h69v26.5l-2 9-7.5 11.5-10 5-13 1-1 1h-65l-17-3-11.5-8.5-4-7-3-14v-45l3-14q2.9-8.1 9.5-12.5l9-4zm715 0h49l1 1h9l12 3 9.5 6.5 5 12v9.5h-13v-7.5q-.9-6.6-5.5-9.5l-10-3h-11l-1-1h-40l-1 1-15 1-8.5 5.5q-4.2 5.8-3 17 .9 6.6 5.5 9.5l8 3h12l1 1h59l15 5 6.5 6.5 3 6 1 16-2 11-7.5 9.5-5 3-11 3h-12l-1 1h-49l-1-1h-11l-8-2q-8.1-2.9-12.5-9.5l-3-7-1-15.5h13v9.5l3 8 2.5 2.5 8 3h9l1 1h48l1-1h11l8-3 3.5-3.5 3-9v-8l-2-7-3.5-3.5-8-3h-55l-1-1-20-1-9-3-8.5-7.5-3-8-1-13 3-13 6.5-7.5 11-5 14-1zm636 0h74l14 3 10.5 7.5q5.4 6.6 7 17v55l-2 8-7.5 11.5-12 6-12 1-1 1h-68l-1-1-13-1q-8.5-2.5-13.5-8.5-5.4-6.1-7-16v-8l-1-1v-39l1-1v-8l3-10 7.5-9.5 7-4zm3.5 11-13 4-6 6-3 9v51l3 9 10 7 11 2h63l1-1 11-1 4-2 4-4 4-11v-49l-4-11-8-7-9-2zm162.5-11h48l1 1h9l12 3 9.5 6.5 4 8 1 13.5h-13v-7.5q-.9-6.6-5.5-9.5l-10-3h-11l-1-1h-40l-1 1-15 1-8.5 5.5q-4.4 6.1-3 18 1.5 6.5 6.5 9.5l7 2h11l1 1h59l16 5 6.5 6.5 3 7v22q-1.9 9.1-8.5 13.5l-5 3-11 3h-11l-1 1h-50l-1-1-16-1-12.5-6-6-11.5-1-15.5h13v10.5q.9 6.6 5.5 9.5l8 3h8l1 1h50l1-1h10q7.5-1.5 11.5-6.5l3-10v-6l-2-8-3.5-3.5-8-3h-55l-1-1-20-1-11-4-6.5-6.5-3-7-1-16 4-13 5.5-5.5 11-5 15-1zm-1336 1h17l.5 1.5 57 95 5 10.5h-14.5l-1.5-1.5-11-20.5h-87.5l-2.5 2.5-11.5 19.5h-14l-.5-1.5zm8.5 12-37 61 1 1h72l-6-12-29-48q1-3-1-2zm90-12h22.5l.5 1.5 62.5 89.5 64-91h21l.5.5v106.5h-13.5l-.5-.5v-93l-3 2-63.5 91.5h-10l-.5-1.5-64-92.5-2 .5v93l-.5.5h-13.5zm200 0h104.5l.5.5v10.5h-90.5l-1.5 1.5v33l1.5 1.5h86l.5.5v10.5h-88v38h91.5l.5.5v10.5h-105zm340 0h122.5l.5.5v10.5h-53.5l-1.5 1.5v94l-.5.5h-13.5v-96h-53.5l-.5-.5zm142 0h13.5l.5.5v87l3.5 5.5 5 3 11 1 1 1h57l11-2 7.5-5.5 2-5v-85.5h13.5l.5.5v83q-2.5 1.5-1 7l-3 7-6.5 6.5-12 4h-10l-1 1h-60l-1-1h-9l-8-2q-6.7-2.2-10.5-7.5l-4-10zm154 0h88.5l1 1h13l15 5 7.5 7.5 5 11 2 11v36l-4 16q-2.9 8.1-9.5 12.5l-7 4-12 3h-99.5zm16 11-2 2v83h85l10-4q5-4 7-10l3-15v-25l-1-1v-8l-6-14-7-6-11-1-1-1zm144-11h12.5l.5.5v106.5h-12.5l-.5-.5z" opacity=".996"/></g><path d="m898.5 0 8.5.5-8.5.5zm45 0 9.5.5-9.5.5zm-62 1 4.5.5-4.5.5zm84 0 4.5.5-4.5.5zm-96 1 3.5.5-3.5.5zm109 0 3.5.5-3.5.5zm-119 1 2.5.5-2.5.5zm129 0 3.5.5-3.5.5zm-138 1 3.5.5-3.5.5zm147 0 2.5.5-2.5.5zm-154 1 2.5.5-2.5.5zm169 1 2.5.5-2.5.5zm-189 2 2.5.5-2.5.5zm427 87 1 2zm12 8 1 2zm3 2 1 2zm-683 2-1 2zm690 3 1 2zm-393 3 3.5.5-3.5.5zm97 0 2.5.5-2.5.5zm303 2 1 2zm-711 2-1 2zm298 1-1 2zm417 0 1 2zm-719 2-1 2zm723 1 1 2zm-732 6-1 2zm741 1 1 2zm-746 3-1 2zm751 1 1 2zm-756 3-1 2zm454 1 .5 44.5h-1zm307 0 1 2zm-767 4-1 2zm773 1 2 3zm-780 5-2 3zm787 1 2 3zm-795 6-3 4zm804 2 3 4zm-817 10-21 22zm833 5 9 10zm22 23 3 4zm-884 2-4 5zm893 8 2 3zm-902 2-2 3zm909 6 1 2zm-915 1-2 3zm167 4 2.5.5-2.5.5zm223 1 .5 13.5h-1zm530 0 1 2zm-926 2-1 2zm159 3-1 2zm31 0 1 2zm741 1 1 2zm-935 1-1 2zm784 1 15 16zm-788 4-1 2zm206 0 6 7zm533 0-4 5zm207 3 1 2zm-949 1-1 2zm153 6-7 8zm74 7 6 7zm734 2 1 2zm-973 1-1 2zm826 0 4 5zm-833 10-1 2zm152 1-7 8zm692 1 2 3zm-115 1-24 25zm-464 2 6 7zm587 6 3 4zm9 10 3 4zm-577 2 3 4zm-155 2-2 3zm739 4 1 2zm2 37-1 2zm-8 9-9 10zm-27 26-7 8zm-19 18-6 7zm-901 66 114.5.5-114.5.5zm1160 6 .5 2-241-.5 239.5-.5zm1016 28 5.5.5-5.5.5zm-897 4 13.5.5-13.5.5zm116 0 13.5.5-13.5.5zm-129 1 3.5.5-3.5.5zm152 0 3.5.5-3.5.5zm-160 1 2.5.5-2.5.5zm903 0-5 6zm35 0 5 6zm-2323 1 5.5.5-5.5.5zm120 0 .5 230.5h-1zm253 0 .5 52.5-1.5 1.5h-180.5v35.5l.5.5h171v1h-172l-.5-.5v-36l1.5-1.5h180.5zm27 0 .5 57 99 .5-98.5.5-1.5-1.5zm369 0 .5 82 149 .5-148.5.5-1.5-1.5zm1127 0 4.5.5-4.5.5zm-1884 1 2.5.5-2.5.5zm1895 0 2.5.5-2.5.5zm385 3-4 5zm27 0 4 5zm-970 7-1 2zm952 0 6.5.5-6.5.5zm-956 3-5 6zm969 0 .5 2.5h-1zm-2263 1 1 2zm1903 3 6 7zm-355 2 1 2zm-1542 1 1 2zm2262 0-1 2zm-30 15 2 3zm23 0q1.3 2.3 6 1l1.5-.5q.5 3-6.5 1.5zm10 0-1 2zm-28 1 5.5.5-5.5.5zm-10 3 3 4zm43 0-3 4zm-26 3 2.5.5-2.5.5zm7 0 2.5.5-2.5.5zm-979 2 .5 2.5h-1zm-1261 2 .5 2.5h-1zm1349 2 2.5.5-2.5.5zm98 0 3.5.5-3.5.5zm94 0 .5 4.5h-1zm-503 4 181.5.5-181.5.5zm222 1 .5 6.5h-1zm-1476 1 130.5.5-130.5.5zm1551 0-1 2zm-832 2 98.5.5-98.5.5zm1166 0 134.5.5-134.5.5zm238 9 .5 4.5h-1zm-1977 6 .5 2.5h-1zm70 1 .5 2.5h-1zm1260 8 .5 5.5h-1zm95 5 4.5.5-4.5.5zm25 1 68.5.5-68.5.5zm456 0 .5 2.5h-1zm-367 1 4.5.5-4.5.5zm14 1 3.5.5-3.5.5zm-445 1h171l1.5 1.5v46l-1.5 1.5-171.5-.5 172-.5v-46.5l-.5-.5h-171zm454 0 2.5.5-2.5.5zm-1708 1 130.5.5-130.5.5zm1748 12 1 2zm7 7 1 2zm-270 8 1 2zm6 6 1 2zm34 13 2.5.5-2.5.5zm-1185 1 171.5.5-172 .5v35.5l.5.5h184v1h-185l-.5-.5v-36zm1193 0 2.5.5-2.5.5zm-1533 1 132.5.5-132.5.5zm1542 0 4.5.5-4.5.5zm224 0 .5 2.5h-1zm286 0 .5 3.5h-1zm-494 1 9.5.5-9.5.5zm713 0 89.5.5-89.5.5zm-636 1 15.5.5-15.5.5zm29 1 3.5.5-3.5.5zm-746 1 148.5.5-149 .5-.5 87-.5-86.5zm-771 1 2 3zm1620 7 .5 20.5h-1zm-1543 1 .5 2.5h-1zm-72 1 .5 2.5h-1zm1324 2 70.5.5-70.5.5zm218 1 .5 3.5h-1zm429 4 .5 4.5h-1zm-1898 2 .5 14.5h-1zm1469 2 .5 2.5h-1zm323 7 4.5.5-4.5.5zm-2017 4 133.5.5-133.5.5zm1254 0 185.5.5-185.5.5zm512 5 .5 2.5h-1zm-202 1 2.5.5-2.5.5zm109 0 3.5.5-3.5.5zm-197 1 .5 3.5h-1zm768 8-1 2zm-136 16-2 3zm-4 4-2 3zm-617 3 4 5zm-1276 1-1 2zm1537 4-1 2zm308 11 2.5.5-2.5.5zm-1887 1 3.5.5-3.5.5zm1876 0 4.5.5-4.5.5zm-339 1 2.5.5-2.5.5zm-172 1 3.5.5-3.5.5zm159 0 5.5.5-5.5.5zm-145 1 9.5.5-9.5.5zm118 0 13.5.5-13.5.5zm-1385 34 42.5.5-42.5.5zm133 1 43.5.5-43.5.5zm461 13 2.5.5-2.5.5zm76 0 2.5.5-2.5.5zm637 0 3.5.5-3.5.5zm61 0 2.5.5-2.5.5zm577 0 2.5.5-2.5.5zm82 0 2.5.5-2.5.5zm81 0 3.5.5-3.5.5zm60 0 3.5.5-3.5.5zm-1118 1 .5 107.5h-1zm28 0 .5 107.5h-1zm340 0 .5 11.5h-1zm142 0 .5 84.5h-1zm112 0 .5 83.5h-1zm138 0 4.5.5-4.5.5zm-1232 5-5 6zm1511 0-1 2zm-1066 1-1 2zm264 0-1 2zm546 0 1 2zm95 0-3 4zm-644 3-1 2zm801 0-1 2zm-1418 2 3.5.5-3.5.5zm642 0 2.5.5-2.5.5zm58 0 3.5.5-3.5.5zm743 0 2.5.5-2.5.5zm58 0 2.5.5-2.5.5zm-1380 1 1 2zm699 0 .5 95.5h-1zm242 0 .5 83.5h-1zm110 0 1 2zm-946 1 .5 94.5h-1zm-212 2 2 3zm701 0 1 2zm557 0-3 4zm96 0 2 3zm-1019 1-1 2zm17 0-1 2zm-448 2-1 2zm694 2 .5 2.5h-1zm801 0 .5 2.5h-1zm-1164 1 1 2zm470 4 .5 5.5h-1zm801 0 .5 5.5h-1zm-1620 1 .5 2.5h-1zm119 0 .5 5.5h-1zm323 0-1 2zm1084 0 .5 6.5h-1zm-1512 2 .5 4.5h-1zm711 0 .5 3.5h-1zm626 0 .5 2.5h-1zm138 1 .5 3.5h-1zm-124 1 .5 47.5h-1zm-1026 1 1 2zm17 0 1 2zm1119 2 .5 41.5h-1zm-763 2 .5 2.5h-1zm801 1 .5 2.5h-1zm-1080 3-1 2zm847 0 .5 5.5h-1zm-917 2 1 2zm365 0 2 3zm801 0 2 3zm-1181 3 1 2zm178 2h87l.5.5v11h-1v-10l-.5-.5h-86zm213 0 2.5.5-2.5.5zm527 0 .5 15.5h-1zm274 0 2.5.5-2.5.5zm-1841 1-7 8zm1104 0 3.5.5-3.5.5zm800 0 4.5.5-4.5.5zm-1177 2-1 2zm15 3-1 2zm279 0 1 2zm907 1 1 2zm-1562 1 69.5.5-69.5.5zm292 3 1 2zm1275 1 1 2zm-888 1 4.5.5-4.5.5zm800 0 4.5.5-4.5.5zm-739 1 2.5.5-2.5.5zm801 0 2.5.5-2.5.5zm-789 3 2 3zm463 0 .5 4.5h-1zm-901 1 1 2zm53 1-1 2zm1204 2 .5 2.5h-1zm-371 4 .5 2.5h-1zm-855 1-1 2zm-276 2 .5 4.5h-1zm252 0 1 2zm1140 0 .5 7.5h-1zm-1512 1 .5 4.5h-1zm1475 0 .5 3.5h-1zm-138 2 .5 2.5h-1zm-928 1-1 2zm-423 1 .5 2.5h-1zm373 1 1 2zm30 2-1 2zm1233 2 .5 2.5h-1zm-801 1 .5 2.5h-1zm-1175 1-10 11zm1599 2-2 3zm-1241 1 3 4zm1351 0 3 4zm101 1-1 2zm-368 1-2 3zm-720 2 1 2zm890 1-1 2zm-29 1 2.5.5-2.5.5zm-1140 1 2.5.5-2.5.5zm987 0 2.5.5-2.5.5zm426 0 1 2zm-1509 2 3 4zm823 0-3 4zm801 0-3 4zm-633 1 3 4zm361 0 1 2zm-952 2-1 2zm1070 1-1 2zm-237 5 4.5.5-4.5.5zm-1212 1 2.5.5-2.5.5zm77 0 3.5.5-3.5.5zm634 0 3.5.5-3.5.5zm65 0 3.5.5-3.5.5zm214 0 3.5.5-3.5.5zm73 0 3.5.5-3.5.5zm288 0 2.5.5-2.5.5zm80 0 2.5.5-2.5.5zm81 0 2.5.5-2.5.5zm65 0 3.5.5-3.5.5zm-1967 1-1 2zm-9 17 .5 6.5h-1zm7 20 15 16zm-131 17 1 2zm730 1 18 19zm-728 2 1 2zm9 13 1 2zm5 7 1 2zm3 4 1 2zm3 4 1 2zm158 0 13 14zm-151 9 1 2zm546 1 .5 86.5h-1zm-142 1 .5 29.5h-1zm-400 3 1 2zm742 0 17 18zm-542 1-2 3zm-196 4 1 2zm175 4 6.5.5-6.5.5zm-170 2 1 2zm6 7 2 3zm7 8 4 5zm13 14 16 17zm750 2 18 19zm-385 18 .5 26.5h-1zm-337 7 3 4zm9 8 2 3zm8 7 1 2zm749 3 10.5 11.5h-1zm-743 2 1 2zm11 9 1 2zm739 2-1 2zm-735 1 1 2zm434 5-4 5zm-422 4 1 2zm4 3 1 2zm401 1 2.5.5-2.5.5zm-391 6 1 2zm440 98 2.5.5-2.5.5zm-194 1 2.5.5-2.5.5zm188 0 2.5.5-2.5.5zm-14 2 2.5.5-2.5.5zm-152 1 2.5.5-2.5.5zm145 0 2.5.5-2.5.5zm-137 1 3.5.5-3.5.5zm127 0 3.5.5-3.5.5zm-117 1 3.5.5-3.5.5zm107 0 3.5.5-3.5.5zm-95 1 5.5.5-5.5.5zm81 0 4.5.5-4.5.5zm-63 1 10.5.5-10.5.5zm40 0 10.5.5-10.5.5z" fill="#1d191a" opacity=".545" stroke="#1d191a"/></svg>