<?xml version="1.0" encoding="UTF-8" standalone="no"?><!DOCTYPE svg PUBLIC "-//W3C//DTD SVG 1.1//EN" "http://www.w3.org/Graphics/SVG/1.1/DTD/svg11.dtd"><svg width="100%" height="100%" viewBox="0 0 921 338" version="1.1" xmlns="http://www.w3.org/2000/svg" xmlns:xlink="http://www.w3.org/1999/xlink" xml:space="preserve" xmlns:serif="http://www.serif.com/" style="fill-rule:evenodd;clip-rule:evenodd;stroke-linejoin:round;stroke-miterlimit:2;"><path d="M43.748,172.392l27.772,28l0,-56.008l-27.772,0l0,28.007Zm277.718,28l27.772,-28l0,-28.007l-27.772,0l0,56.008Zm-198.97,-9.525c-0,-9.062 1.617,-17.748 4.575,-25.776l0,-20.699l-27.772,0l0,84.008l27.772,28l0,-39.75c-2.958,-8.028 -4.575,-16.715 -4.575,-25.776l0,-0.008Zm32.339,93.534l0,-32.082c8.219,5.632 17.63,9.638 27.772,11.57l0,48.512l-27.772,-28Zm55.544,-20.519l0,48.527l27.772,-28l0,-32.142c-8.219,5.647 -17.63,9.675 -27.772,11.615Zm55.543,-98.566l0,-20.931l27.772,0l0,84.016l-27.772,28l0,-39.982c2.899,-7.968 4.486,-16.573 4.486,-25.551c0,-8.979 -1.587,-17.584 -4.486,-25.552Z" style="fill:#008835;"/><path d="M43.748,172.392l-27.764,-28.007l27.764,0l0,28.007Zm55.543,56.001l-27.772,-28l0,-56.008l27.772,0l0,84.008Zm194.402,0l27.772,-28l0,-56.008l-27.772,0l0,84.008Zm55.544,-56.001l0,-28.007l27.772,0l-27.772,28.007Zm-222.174,84.008l0,-39.75c5.372,14.596 15.178,27.034 27.772,35.669l0,32.082l-27.772,-28Zm69.384,8.792c-4.73,-0 -9.356,-0.45 -13.841,-1.303l0,48.512l13.882,14.004l13.882,-14.004l0,-48.535c-4.507,0.861 -9.163,1.325 -13.923,1.326Zm57.708,-120.808l11.766,0l0,20.931c-2.787,-7.646 -6.788,-14.7 -11.766,-20.931Zm-16.006,107.875l0,32.142l27.772,-28l0,-39.982c-5.342,14.663 -15.149,27.169 -27.772,35.841Zm-111.087,-87.176l0,-20.699l11.677,0c-4.925,6.171 -8.897,13.142 -11.677,20.699Z" style="fill:#fff;"/><path d="M196.452,123.206c37.123,0 67.324,30.352 67.324,67.66c0,37.309 -30.201,67.66 -67.324,67.66c-37.124,0 -67.325,-30.352 -67.325,-67.66c0,-37.309 30.201,-67.66 67.325,-67.66Z" style="fill:#fff;fill-rule:nonzero;"/><path d="M248.143,137.719c2.139,2.097 4.143,4.321 6.013,6.665l122.853,0l-180.512,182.02l-180.513,-182.02l122.756,0c1.87,-2.344 3.882,-4.568 6.013,-6.665l-144.753,0l196.496,198.128l196.496,-198.128l-144.85,0Z" style="fill:#cf8a00;fill-rule:nonzero;"/><path d="M196.451,123.206c37.123,0 67.325,30.352 67.325,67.66c0,37.309 -30.201,67.66 -67.325,67.66c-37.123,0 -67.324,-30.352 -67.324,-67.66c0,-37.308 30.201,-67.66 67.324,-67.66Zm0,-6.665c-40.849,0 -73.956,33.28 -73.956,74.325c0,41.046 33.115,74.325 73.956,74.325c40.842,0 73.956,-33.28 73.956,-74.325c0,-41.045 -33.107,-74.325 -73.956,-74.325Z" style="fill:#cf8a00;fill-rule:nonzero;"/><path d="M240.36,176.197l2.815,0l0,-3.81l-2.815,0l0,-4.315c0,-8.715 -7.108,-15.803 -15.857,-15.803l-8.398,0l0,-3.038c0,-7.315 -5.924,-13.269 -13.202,-13.269l-24.52,0l0,9.525l2.825,0l0,6.782l-26.197,0l0,9.525l2.825,0l0,10.202l-2.919,0l0,3.81l2.919,0l0,10.287l-2.825,0l0,9.525l2.825,0l0,10.287l-2.919,0l0,3.81l2.919,0l0,10.202l-2.825,0l0,9.525l26.197,0l0,6.81l-2.825,0l0,9.525l24.52,0c7.279,0 13.202,-5.953 13.202,-13.259l0,-3.068l8.398,0c8.739,0 15.857,-7.087 15.857,-15.802l0,-3.915l2.815,0l0,-3.81l-2.815,0l0,-4.001c0,-4.296 -1.735,-8.192 -4.53,-11.04c2.796,-2.848 4.53,-6.744 4.53,-11.04l0,-3.648Zm-15.857,-14.412c3.516,0 6.379,2.82 6.379,6.277l0,4.315l-2.625,0l0,3.81l2.625,0l0,3.601c0,3.467 -2.863,6.277 -6.379,6.277l-8.938,0c0.35,-1.191 0.54,-2.439 0.54,-3.734l0,-20.555l8.398,0l0,0.01Zm-17.875,58.113l-15.942,0l0,-24.261l3.867,0l0,2.734l3.791,0l0,-2.734l4.559,0c2.057,0 3.725,1.677 3.725,3.744l0,20.527l0,-0.01Zm-3.725,-33.815l-4.559,0l0,-2.705l-3.791,0l0,2.705l-3.867,0l0,-24.289l15.942,0l0,20.555c0,2.058 -1.668,3.734 -3.725,3.734Zm-12.217,-40.596l12.217,0c2.057,0 3.725,1.676 3.725,3.743l0,3.038l-15.942,0l0,-6.782Zm-23.373,30.319l2.521,0l0,-3.81l-2.521,0l0,-10.202l13.895,0l0,24.289l-13.895,0l0,-10.287l0,0.01Zm0,44.102l0,-10.201l2.521,0l0,-3.81l-2.521,0l0,-10.287l10.795,0l0,0.028l3.1,0l0,24.261l-13.895,0l0,0.01Zm39.314,12.593c0,2.058 -1.668,3.734 -3.725,3.734l-12.217,0l0,-6.81l15.942,0l0,3.077Zm24.254,-22.813l0,3.934c0,3.467 -2.863,6.277 -6.379,6.277l-8.398,0l0,-20.527c0,-1.305 -0.199,-2.572 -0.55,-3.772l8.947,0c3.516,0 6.379,2.82 6.379,6.277l0,4.001l-2.625,0l0,3.81l2.625,0Z" style="fill:#008835;fill-rule:nonzero;"/><path d="M201.23,70.832c2.37,1.562 3.943,4.248 3.943,7.306c0,1.01 -0.17,1.99 -0.493,2.886c-0.929,2.696 -3.137,4.782 -5.895,5.544c0.18,5.61 6.416,10.116 14.103,10.116c5.64,0 10.483,-2.429 12.748,-5.944c-2.531,-1.524 -4.227,-4.296 -4.227,-7.477c0,-0.915 0.142,-1.8 0.398,-2.629c1.1,-3.553 4.398,-6.134 8.293,-6.134c1.355,0 2.625,0.324 3.762,0.876c0.635,-0.581 1.223,-1.172 1.782,-1.781c0.104,-0.114 0.208,-0.229 0.313,-0.343c0.275,-0.305 0.531,-0.61 0.787,-0.915c0.275,-0.333 0.54,-0.676 0.796,-1.019c0.066,-0.095 0.142,-0.19 0.208,-0.285c0.322,-0.438 0.626,-0.886 0.91,-1.343c1.82,-2.867 2.9,-5.925 3.194,-9.058c-11.516,-6.525 -25.628,-10.373 -40.623,-11.04l0,21.241Z" style="fill:#a32035;fill-rule:nonzero;"/><path d="M159.12,75.385c1.137,-0.552 2.417,-0.876 3.763,-0.876c4.796,0 8.682,3.905 8.682,8.725c0,1.2 -0.237,2.334 -0.673,3.372c-0.711,1.724 -1.971,3.172 -3.554,4.134c2.256,3.515 7.118,5.953 12.757,5.953c6.72,0 12.331,-3.448 13.752,-8.068c0.199,-0.657 0.313,-1.343 0.332,-2.048c-3.677,-1.01 -6.388,-4.391 -6.388,-8.411c0,-1.153 0.227,-2.248 0.625,-3.257c0.664,-1.677 1.829,-3.096 3.317,-4.077l0,-11.706l0.009,0l0,-9.535c-14.994,0.667 -29.107,4.515 -40.632,11.059c0.503,5.315 3.26,10.373 7.999,14.735l0.01,0Z" style="fill:#a32035;fill-rule:nonzero;"/><path d="M128.412,91.788c1.213,-0.648 2.597,-1.02 4.075,-1.02c4.796,0 8.682,3.905 8.682,8.725c0,0.962 -0.152,1.876 -0.445,2.734c-0.275,0.838 -0.673,1.629 -1.175,2.334c3.535,3.258 10.084,3.429 15.894,0.067c3.659,-2.124 6.255,-5.21 7.421,-8.383c0.521,-1.438 0.749,-2.895 0.645,-4.277c-0.208,0.019 -0.417,0.028 -0.635,0.028c-4.635,0 -8.416,-3.657 -8.663,-8.258c-2.54,-2.153 -4.692,-4.496 -6.502,-6.963c-0.028,-0.048 -0.066,-0.085 -0.095,-0.133c-0.332,-0.457 -0.682,-0.914 -0.985,-1.39l0.019,0c-1.848,-2.829 -3.203,-5.81 -4.057,-8.887c-8.445,6.687 -14.037,14.716 -16.34,23.413c0.673,0.695 1.393,1.362 2.161,2.01Z" style="fill:#a32035;fill-rule:nonzero;"/><path d="M250.393,66.374c-1.052,3.8 -2.891,7.449 -5.45,10.83c-0.152,0.2 -0.303,0.4 -0.455,0.591c-0.37,0.476 -0.758,0.943 -1.166,1.41c-0.323,0.372 -0.654,0.743 -0.995,1.105c-0.294,0.314 -0.587,0.629 -0.891,0.933c-0.341,0.343 -0.701,0.686 -1.062,1.029c-0.17,0.162 -0.35,0.324 -0.53,0.486c-0.36,0.333 -0.711,0.667 -1.09,0.99c-0.048,0.858 -0.218,1.686 -0.502,2.467c-1.194,3.382 -4.398,5.801 -8.17,5.801c-0.208,0 -0.417,-0.019 -0.625,-0.028c-0.323,4.458 2.758,9.573 8.075,12.659c5.801,3.362 12.331,3.201 15.876,-0.047c-1.014,-1.429 -1.611,-3.163 -1.611,-5.048c0,-0.61 0.066,-1.2 0.19,-1.772l0,-0.038c0.066,-0.276 0.133,-0.543 0.218,-0.8l0,-0.019c0.076,-0.238 0.161,-0.467 0.256,-0.686c0.057,-0.133 0.123,-0.267 0.18,-0.41c0.038,-0.067 0.066,-0.143 0.104,-0.21c1.422,-2.858 4.36,-4.82 7.763,-4.82c1.469,0 2.863,0.372 4.075,1.019c0.768,-0.647 1.488,-1.314 2.161,-2.01c-2.303,-8.697 -7.895,-16.726 -16.34,-23.413l-0.01,-0.019Z" style="fill:#a32035;fill-rule:nonzero;"/><path d="M282.622,75.154c0,-17.545 -15.999,-32.062 -37.542,-34.415c-2.692,-3.581 -6.189,-6.868 -10.454,-9.754c-9.118,-6.163 -20.833,-9.859 -33.4,-10.602l0,-5.048l5.743,0l0,-9.525l-5.743,0l0,-5.81l-9.478,0l0,5.81l-5.744,0l0,9.525l5.744,0l0,5.048c-12.568,0.743 -24.283,4.439 -33.4,10.602c-4.265,2.886 -7.762,6.172 -10.454,9.754c-21.562,2.353 -37.533,16.821 -37.533,34.415c0,9.658 4.872,18.641 13.487,25.165c0.407,4.439 4.113,7.925 8.644,7.925c0.853,0 1.678,-0.133 2.465,-0.362l13.97,16.936c12.852,-10.888 29.438,-17.46 47.57,-17.46c18.131,0 34.718,6.572 47.57,17.46l13.97,-16.936c0.778,0.228 1.611,0.362 2.465,0.362c4.521,0 8.236,-3.477 8.644,-7.915c8.625,-6.525 13.487,-15.498 13.487,-25.175l-0.01,0Zm-127.175,29.5c-5.81,3.372 -12.359,3.2 -15.895,-0.067c1.014,-1.429 1.621,-3.172 1.621,-5.068c0,-4.82 -3.886,-8.725 -8.682,-8.725c-1.469,0 -2.862,0.371 -4.075,1.019c-5.497,-4.591 -8.578,-10.478 -8.578,-16.66c0,-10.792 9.488,-20.241 22.738,-23.756c-0.673,2.448 -1.023,4.973 -1.023,7.535c0,9.144 4.549,17.917 12.672,24.804c0.247,4.601 4.019,8.258 8.663,8.258c0.218,0 0.427,-0.019 0.635,-0.028c0.341,4.467 -2.739,9.601 -8.075,12.697l0,-0.01Zm24.652,-7.935c-5.649,0 -10.511,-2.448 -12.767,-5.972c2.531,-1.524 4.237,-4.305 4.237,-7.487c0,-4.82 -3.886,-8.725 -8.682,-8.725c-1.355,0 -2.625,0.324 -3.763,0.876c-5.251,-4.839 -8.085,-10.535 -8.085,-16.479c0,-15.059 17.875,-27.48 40.717,-29.004l0,40.93c-2.369,1.562 -3.943,4.248 -3.943,7.306c0,4.02 2.71,7.401 6.388,8.41c-0.161,5.62 -6.407,10.145 -14.103,10.145Zm32.784,0c-7.696,0 -13.942,-4.525 -14.103,-10.145c3.678,-1.01 6.388,-4.391 6.388,-8.41c0,-3.058 -1.573,-5.753 -3.943,-7.306l0,-40.93c22.851,1.524 40.717,13.955 40.717,29.004c0,5.944 -2.834,11.63 -8.085,16.479c-1.137,-0.552 -2.417,-0.876 -3.763,-0.876c-4.796,0 -8.682,3.905 -8.682,8.725c0,3.181 1.706,5.963 4.237,7.487c-2.256,3.525 -7.118,5.972 -12.767,5.972Zm38.926,2.8c0,1.895 0.606,3.639 1.62,5.068c-3.535,3.267 -10.085,3.438 -15.894,0.067c-5.336,-3.096 -8.417,-8.23 -8.075,-12.697c0.209,0.019 0.417,0.028 0.635,0.028c4.635,0 8.416,-3.657 8.663,-8.258c8.113,-6.887 12.672,-15.66 12.672,-24.804c0,-2.562 -0.351,-5.086 -1.024,-7.534c13.241,3.524 22.737,13.002 22.737,23.756c0,6.182 -3.08,12.068 -8.577,16.66c-1.213,-0.648 -2.606,-1.019 -4.075,-1.019c-4.796,0 -8.682,3.905 -8.682,8.725l0,0.01Z" style="fill:#cf8a00;fill-rule:nonzero;"/><path d="M438.571,185.962l7.929,0l0.008,0.007c7.554,0 11.329,2.884 11.329,8.63l0,26.821c0,8.254 0.946,14.691 2.833,19.318l21.237,0c-1.704,-6.249 -2.55,-12.686 -2.55,-19.318l0,-24.763c0,-8.51 -4.533,-14.383 -13.596,-17.635c9.067,-2.749 13.596,-7.939 13.596,-15.57l0,-32.823c0,-6.377 -2.6,-11.507 -7.792,-15.382c-5.196,-3.876 -12.792,-5.814 -22.8,-5.814l-31.154,0l0,131.298l20.958,0l0,-54.769Zm19.258,-21.196c0,5.753 -3.783,8.63 -11.329,8.63l-7.929,0l0,-52.335l7.929,0c7.554,0 11.329,2.944 11.329,8.817l0,34.888Zm78.3,72.127c3.867,-3.44 5.804,-7.721 5.804,-12.851l-0.004,0l0,-13.565l-18.692,0l0,15.442c0,3.628 -2.167,5.438 -6.508,5.438c-4.342,0 -6.513,-1.81 -6.513,-5.438l0,-33.949l32.567,0l0,-36.953c0,-5.123 -2.029,-9.441 -6.088,-12.941c-4.067,-3.5 -10.908,-5.25 -19.967,-5.25c-9.062,0 -15.679,1.75 -19.829,5.25c-4.154,3.5 -6.229,7.819 -6.229,12.941l0,69.025c0,5.13 2.029,9.411 6.092,12.851c4.058,3.44 10.896,5.16 19.967,5.16c9.067,0 15.529,-1.72 19.4,-5.16Zm-25.913,-55.618l0,-28.135l0.008,0c0,-3.748 2.45,-5.626 6.792,-5.626c4.342,0 6.512,1.87 6.512,5.626l0,28.135l-13.312,0Zm76.171,59.464l0,-5.062c-3.025,4.251 -8.308,6.377 -15.854,6.377c-12.837,0 -19.254,-4.687 -19.254,-14.068l0,-21.571c0,-5.753 1.367,-10.282 4.104,-13.602c2.733,-3.312 7.879,-6.535 15.433,-9.659l13.596,-5.625l0,-24.388c0,-3.755 -2.083,-5.626 -6.229,-5.626c-4.15,0 -6.229,1.878 -6.229,5.626l0,15.24l-19.254,0l0,-12.799c0,-5.377 2.029,-9.847 6.087,-13.414c4.058,-3.56 10.621,-5.348 19.683,-5.348c9.062,0 15.9,1.75 19.967,5.25c4.062,3.5 6.092,7.946 6.092,13.317l0,85.346l-18.125,0l-0.017,0.007Zm-9.058,-9.945c4.904,0 7.358,-2.185 7.358,-6.565l0,-33.573l-6.229,2.629c-5.1,2.126 -7.65,6.001 -7.65,11.627l0,20.069c0,3.875 2.171,5.813 6.512,5.813l0.008,0Zm38.788,9.945l19.825,0l0,-131.305l-19.825,0l0,131.305Zm105.263,-21.947c0,6.632 -2.738,11.942 -8.217,15.945c-5.479,4.003 -13.5,6.001 -24.071,6.001l-29.45,0l0,-131.305l28.604,0c10.192,0 17.842,1.938 22.942,5.814c5.1,3.875 7.65,9.005 7.65,15.382l0,25.702c0,6.505 -3.779,11.439 -11.329,14.819c4.146,1.255 7.508,3.313 10.05,6.189c2.55,2.877 3.821,6.069 3.821,9.569l0,31.884Zm-33.979,-52.711c7.171,0 10.762,-2.937 10.762,-8.818l0,-27.948c0,-5.873 -3.592,-8.817 -10.762,-8.817l-6.796,0l0,45.583l6.796,0Zm0.846,63.587c8.117,0 12.175,-3.125 12.175,-9.381l0,-33.949c0,-6.249 -4.058,-9.381 -12.175,-9.381l-7.65,0l0,52.711l7.65,0Zm88.208,7.225c3.867,-3.44 5.808,-7.721 5.808,-12.851l-0.008,0l0,-13.565l-18.688,0l0,15.442c0,3.628 -2.171,5.438 -6.512,5.438c-4.342,0 -6.513,-1.81 -6.513,-5.438l0,-33.949l32.567,0l0,-36.953c0,-5.123 -2.029,-9.441 -6.087,-12.941c-4.067,-3.5 -10.908,-5.25 -19.967,-5.25c-9.063,0 -15.679,1.75 -19.829,5.25c-4.154,3.5 -6.229,7.819 -6.229,12.941l0,69.025c0,5.13 2.029,9.411 6.092,12.851c4.058,3.44 10.896,5.16 19.967,5.16c9.067,0 15.529,-1.72 19.4,-5.16Zm-25.912,-55.618l0,-28.135l0.008,0c0,-3.748 2.45,-5.626 6.792,-5.626c4.342,0 6.512,1.87 6.512,5.626l0,28.135l-13.312,0Zm77.308,47.829l0,11.627l-7.075,0c-16.617,0 -24.917,-6.001 -24.917,-18.004l0,-74.575l-6.796,0l0,-10.132l6.796,0l0,-22.022l19.825,0l0,22.022l11.329,0l0,10.132l-11.329,0l0,74.012c0,4.627 3.3,6.94 9.908,6.94l2.258,0Zm69.663,-60.732l18.942,0l0,-13.73c0,-5.002 -1.983,-9.223 -5.946,-12.663c-3.962,-3.44 -10.379,-5.16 -19.254,-5.16c-8.875,0 -15.292,1.72 -19.254,5.16c-3.962,3.44 -5.946,7.661 -5.946,12.663l0,12.566c0,9.005 4.438,16.569 13.312,22.698l11.612,8.067c2.646,1.758 4.483,3.35 5.521,4.785c1.042,1.435 1.562,3.778 1.562,7.03l0,16.133c0,3.628 -2.354,5.438 -7.075,5.438c-4.721,0 -7.079,-1.81 -7.079,-5.438l0,-15.442l-18.971,0l0,13.565c0,5.13 2.029,9.411 6.087,12.851c4.062,3.44 10.529,5.16 19.967,5.16c9.442,0 16.238,-1.72 20.392,-5.16c4.15,-3.44 6.229,-7.721 6.229,-12.851l0,-15.195c0,-3.628 -0.712,-6.82 -2.125,-9.569c-1.413,-2.749 -2.833,-4.747 -4.246,-6.001c-1.413,-1.247 -3.721,-2.997 -6.933,-5.25l-12.179,-8.442c-2.646,-1.75 -4.438,-3.41 -5.379,-4.972c-0.946,-1.555 -1.412,-3.965 -1.412,-7.218l0,-14.443c0,-3.5 1.8,-5.25 5.946,-5.25c4.15,0 6.229,1.75 6.229,5.25l0,15.42Zm-42.475,72.367l-19.825,0l0,-102.711l19.825,0l0,102.711Zm-9.821,-131.305c-6.808,0 -12.146,5.393 -12.146,12.273c0,6.692 5.521,12.085 12.146,12.085c6.625,0 11.963,-5.205 11.963,-12.085c0,-6.88 -5.154,-12.273 -11.963,-12.273Z" style="fill:#808080;"/></svg>