<?xml version="1.0" encoding="utf-8"?>
<!-- Generator: Adobe Illustrator 25.4.1, SVG Export Plug-In . SVG Version: 6.00 Build 0)  -->
<svg version="1.1" id="Capa_1" xmlns="http://www.w3.org/2000/svg" xmlns:xlink="http://www.w3.org/1999/xlink" x="0px" y="0px"
	 viewBox="0 0 140 50" style="enable-background:new 0 0 140 50;" xml:space="preserve">
<style type="text/css">
	.st0{fill:#F7A600;}
	.st1{fill:#9D9D9C;}
</style>
<g>
	<g>
		<path class="st0" d="M38.5,10.5c2.9,0,5.3-2.4,5.3-5.3S41.4,0,38.5,0s-5.3,2.4-5.3,5.3S35.6,10.5,38.5,10.5"/>
	</g>
	<g>
		<path class="st1" d="M5.9,43c-1.7-0.4-3.2-0.9-4.5-1.3L0,48.1c0.8,0.3,2.1,0.7,4.1,1.2C6,49.7,8.6,50,11.8,50
			c4.8,0,8.4-0.8,11-2.5s3.8-4.1,3.8-7.3c0-1.5-0.2-2.8-0.6-3.8c-0.4-1.1-1.1-2-2-2.8s-2-1.6-3.4-2.2c-1.4-0.7-3.1-1.3-5.1-2
			c-1.2-0.4-2.2-0.8-3-1.1c-0.8-0.4-1.5-0.7-2-1.1S9.6,26.4,9.4,26c-0.2-0.4-0.3-0.9-0.3-1.5c0-1.1,0.5-1.9,1.6-2.5s2.4-0.8,4.1-0.8
			c1.9,0,3.6,0.2,5,0.5s2.6,0.7,3.5,1.1l1.5-6.3c-1-0.3-2.4-0.7-4.4-1.1c-1.9-0.4-4-0.5-6.1-0.5c-4.2,0-7.5,0.9-10,2.7
			c-2.4,1.8-3.7,4.2-3.7,7.3c0,1.6,0.3,2.9,0.8,4s1.3,2,2.2,2.8s2,1.4,3.3,2s2.7,1.1,4.2,1.6c2.5,0.9,4.3,1.6,5.4,2.4
			c1.1,0.7,1.6,1.6,1.6,2.7c0,1.2-0.5,2-1.5,2.5s-2.6,0.7-4.8,0.7S7.6,43.4,5.9,43"/>
	</g>
	<g>
		<path class="st1" d="M118.8,15.5c-2,0.3-3.6,0.7-4.6,1l1,6.3c1-0.3,2.3-0.6,3.9-0.9s3.4-0.4,5.3-0.4c1.4,0,2.6,0.2,3.6,0.5
			c1,0.3,1.7,0.8,2.3,1.4s1,1.3,1.2,2.1c0.2,0.8,0.3,1.7,0.3,2.6v1.3c-1.2-0.3-2.2-0.4-3.3-0.5c-1-0.1-2-0.2-2.9-0.2
			c-2,0-3.9,0.2-5.7,0.5c-1.8,0.4-3.4,1-4.8,1.8s-2.5,1.9-3.3,3.2s-1.2,2.9-1.2,4.9s0.4,3.7,1.1,5.1s1.7,2.5,3,3.3
			c1.3,0.9,2.8,1.5,4.6,1.9s3.8,0.6,5.9,0.6c3.3,0,6.2-0.2,8.8-0.5c2.6-0.4,4.5-0.7,5.8-0.9V28.2c0-2-0.2-3.8-0.7-5.4
			s-1.3-3-2.4-4.2c-1.1-1.2-2.6-2-4.5-2.7c-1.9-0.6-4.2-1-7-1C123,15,120.8,15.1,118.8,15.5 M121,42.7c-1.2-0.7-1.9-2-1.9-3.8
			c0-0.9,0.2-1.7,0.7-2.3s1.1-1.1,1.8-1.4c0.8-0.3,1.6-0.6,2.6-0.7c0.9-0.1,1.9-0.2,2.8-0.2c1.1,0,2,0.1,2.9,0.2
			c0.9,0.1,1.5,0.3,2,0.4v8.6c-1.3,0.3-3.3,0.4-5.9,0.4C123.9,43.8,122.2,43.4,121,42.7"/>
	</g>
	<g>
		<path class="st1" d="M73,49.5h8.6v-17c0-3.6-0.1-5.7-0.1-8.1c0.6-0.4,1.2-0.8,2.4-1.2c1.2-0.4,2.5-0.6,3.9-0.6
			c3.4,0,4.6,1.3,5.3,2.1c0.9,1.6,1.1,4.3,1.1,7.8v17h8.6V30.7c0-2.3-0.2-4.3-0.6-6.2c-0.4-1.9-1.1-3.5-2.2-4.9
			c-1.1-1.3-2.5-2.4-4.4-3.1s-4.3-1.1-7.1-1.1c-1.1,0-2.3,0.1-3.4,0.3s-2.2,0.5-3.2,0.8s-1.9,0.7-2.7,1.1c-0.8,0.4-1.5,0.7-2,1.1
			c-1.1-1-2.5-1.8-4.1-2.4s-3.7-0.9-6.3-0.9c-3,0-5.8,0.2-8.5,0.6c-2.7,0.4-4.9,0.8-6.5,1.2v32.3h8.6V23.1c0.6-0.1,1.4-0.2,2.6-0.3
			c1.1-0.1,2.2-0.2,3.1-0.2c2.7,0,5.1,0.5,6.1,2.1S73,29,73,32.5C73,32.5,73,49.5,73,49.5z"/>
	</g>
</g>
<g>
	<rect x="34.5" y="16.3" class="st1" width="8.3" height="33.2"/>
</g>
</svg>
