<?xml version="1.0" encoding="utf-8"?>
<!-- Generator: Adobe Illustrator 25.4.1, SVG Export Plug-In . SVG Version: 6.00 Build 0)  -->
<svg version="1.1" id="Capa_1" xmlns="http://www.w3.org/2000/svg" xmlns:xlink="http://www.w3.org/1999/xlink" x="0px" y="0px"
	 viewBox="0 0 2500 2297" style="enable-background:new 0 0 2500 2297;" xml:space="preserve">
<path d="M1792,1126.7c-101.4,230.2-310.2,350.7-533.1,347.9c-427.6-21.2-552-515-266.2-693.3l12.6,12.6
	c-4.9,6.4-21.5,19.8-48.2,72.1c-31.1,63.5-40.6,126.9-36.9,166.5c22.3,345.2,505.2,415.4,671.6,74.2
	c211.7-468.1-349.5-943.5-847.8-580.2L732.3,515c131.1-205.7,387.2-297.7,631.8-236.2C1738.2,372.3,1939,762.5,1792,1126.7
	L1792,1126.7z M1392.2,1119.3c-34.6,49.8-92.3,82.5-157.6,82.5c-105.9,0-191.8-85.8-191.8-191.8c0-101.2,78.4-184.1,177.8-191.2
	c61.9-2.5,119.6,31,147.1,85.2c29.6,58.5,18.8,130.6-27.3,179.3L1392.2,1119.3z M723.2,992.7c-9.2,76.2-3.5,99.9-3.5,109l-16.9,6.2
	c-6.4-12.5-22.6-56.7-29.8-116c-18.3-226.4,136-430.4,370.8-468.4c215.4-31.7,421.3,102.1,469.6,289.3l-17,6.2
	c-5-5.6-14-20.7-46.6-53.7C1190,504.3,781.8,624,723.2,992.7L723.2,992.7z M1955.1,867.1C1939.7,118.9,945.9-160,563.3,541.2
	c16.9,12.2,40.3,28.8,57.2,41C591.2,643.7,571.6,706.4,561,769c-7.6,41.7-11.3,83.9-11.3,126.3c0,388.3,314.8,703,703,703
	s703-314.8,703-703.1C1955.7,885.8,1955.5,876.4,1955.1,867.1 M2340.9,1811.9h-112.2v318.3h-87v-318.3h-112.8v-82.4h312V1811.9z
	 M1808.3,1811.9v92.7h170v66.4h-170v159.1h-87v-400.7h274.2v82.4H1808.3z M1597.7,1929.8c0-72.1-45.8-124.8-115.6-124.8
	c-40.6,0-71,15.5-89.3,35.5l13.7,13.7c-21.2,17.7-40.1,42.4-40.1,86.4c0,60.7,42.9,113.9,115.6,113.9
	C1551.9,2054.6,1597.7,2001.9,1597.7,1929.8L1597.7,1929.8z M1685.8,1929.8c0,117.9-84.7,207.2-203.8,207.2
	c-121.9,0-203.8-87.6-203.8-193.5c0-68.7,26.9-118.5,66.4-151.1l-13.7-13.7c30.3-31.5,85.9-56.1,151.1-56.1
	C1601.1,1722.5,1685.8,1813,1685.8,1929.8z M1149.9,1891.4c68.7,24,104.2,55,104.2,116.8c0,83-63.5,128.8-138.5,128.8
	c-69.3,0-122.5-30.9-144.8-88.2l69.3-51.5c12.6,36.1,45.2,58.4,77.9,58.4c28.6,0,49.2-15.5,49.2-41.2c0-24-15.5-38.9-72.7-59.5
	c-61.8-22.3-107.6-53.2-107.6-119.6c0-64.1,53.2-112.8,130.5-112.8c61.3,0,108.8,24.6,131.1,73.3l-69.3,48.1
	c-13.2-29.8-33.8-46.4-65.3-46.4c-26.3,0-45.8,14.3-45.8,34.9C1068,1855.9,1089.8,1870.2,1149.9,1891.4L1149.9,1891.4z
	 M852.6,1729.4h87v400.7h-87V1729.4z M673.5,2053.4c37.2,0,58.4-17.2,58.4-50.4c0-33.2-21.2-50.4-58.4-50.4h-48.1v100.7H673.5z
	 M625.4,1806.1v84.7h45.8c26.9,0,45.2-15.5,45.2-42.4c0-26.9-18.3-42.4-45.2-42.4L625.4,1806.1z M818.9,2011.1
	c0,69.3-54.4,119.1-142,119.1H538.4v-400.7h133.4c77.3,0,128.2,37.2,128.2,96.7c0,45.2-21.2,72.7-52.7,85.9
	C789.7,1928.1,818.9,1957.3,818.9,2011.1L818.9,2011.1z M495.3,1729.4v240.4c0,95.6-58.4,167.2-165.4,167.2s-165.4-71.5-165.4-167.2
	v-240.4h87V1963c0,58.4,27.5,91.6,78.4,91.6s78.4-33.2,78.4-91.6v-233.6L495.3,1729.4z"/>
</svg>
